<?xml version="1.0" encoding="UTF-8"?>
<svg version="1.1" xmlns="http://www.w3.org/2000/svg" width="1524" height="1524">
<path d="M0 0 C1.03087738 0.09474609 1.03087738 0.09474609 2.08258057 0.19140625 C84.07899723 7.76052031 164.5706488 28.49148517 422.33666992 185.48022461 C423.55709911 186.59532393 424.79106146 187.69565897 426.0324707 188.78735352 C433.51750498 195.39701805 440.56652266 202.41441145 447.61450195 209.48413086 C449.69044426 211.56545189 451.77170422 213.64134813 453.85351562 215.71679688 C455.19823752 217.06217938 456.54264929 218.40787194 457.88671875 219.75390625 C458.49730637 220.36246964 459.10789398 220.97103302 459.73698425 221.59803772 C463.46936063 225.35042821 467.01298684 229.2229695 470.46934509 233.23123169 C472.55329717 235.63936979 474.71413973 237.97338694 476.875 240.3125 C480.89380593 244.72353173 484.72865324 249.23735358 488.47265625 253.8828125 C490.35047916 256.21237942 492.26024117 258.51257397 494.18359375 260.8046875 C502.90450141 271.22482611 511.07425721 281.96489156 519 293 C519.52335937 293.72719238 520.04671875 294.45438477 520.5859375 295.20361328 C543.80957579 327.55608655 564.05497366 361.4551416 582 397 C582.53737793 398.05864258 583.07475586 399.11728516 583.62841797 400.20800781 C621.80590461 475.85794903 644.63477801 559.57417851 654 655 C654.17789062 656.94350342 654.17789062 656.94350342 654.359375 658.92626953 C662.01890873 746.81713943 651.75767678 836.57592654 531 1122 C530.49791016 1122.73379883 529.99582031 1123.46759766 529.47851562 1124.22363281 C511.06455335 1151.00869543 490.64349938 1176.52441894 468.51977539 1200.33666992 C467.40467607 1201.55709911 466.30434103 1202.79106146 465.21264648 1204.0324707 C458.60298195 1211.51750498 451.58558855 1218.56652266 444.51586914 1225.61450195 C442.43454811 1227.69044426 440.35865187 1229.77170422 438.28320312 1231.85351562 C436.93782062 1233.19823752 435.59212806 1234.54264929 434.24609375 1235.88671875 C433.33324867 1236.80260017 433.33324867 1236.80260017 432.40196228 1237.73698425 C428.64957179 1241.46936063 424.7770305 1245.01298684 420.76876831 1248.46934509 C418.36063021 1250.55329717 416.02661306 1252.71413973 413.6875 1254.875 C409.27646827 1258.89380593 404.76264642 1262.72865324 400.1171875 1266.47265625 C397.78762058 1268.35047916 395.48742603 1270.26024117 393.1953125 1272.18359375 C383.52412001 1280.27750037 373.58908374 1287.89777528 363.36865234 1295.28417969 C361.03638585 1296.97364257 358.71443843 1298.6764304 356.39453125 1300.3828125 C346.4938205 1307.64041945 336.39071158 1314.46588823 326 1321 C325.20255371 1321.50499023 324.40510742 1322.00998047 323.58349609 1322.53027344 C249.42891567 1369.42702113 167.39034249 1403.04899151 0 1432 C-1.27810547 1432.12004395 -2.55621094 1432.24008789 -3.87304688 1432.36376953 C-91.07363358 1440.07483881 -181.1606918 1430.49028426 -386.78759766 1357.1328125 C-389.36522803 1355.81299293 -391.95447946 1354.51713937 -394.54296875 1353.21875 C-409.82057885 1345.48690822 -424.43635541 1336.91459357 -438.96728516 1327.88427734 C-441.55957067 1326.27364624 -444.1582129 1324.67442265 -446.76171875 1323.08203125 C-456.06210527 1317.37074593 -465.08486693 1311.29401716 -474 1305 C-474.71414063 1304.49597656 -475.42828125 1303.99195313 -476.1640625 1303.47265625 C-491.27796322 1292.76475132 -506.00757987 1281.58244945 -520.05859375 1269.5078125 C-522.8345394 1267.14106999 -525.65563193 1264.84617969 -528.5 1262.5625 C-534.30297203 1257.84072218 -539.7451668 1252.76894854 -545.20043945 1247.65600586 C-546.46121388 1246.49580603 -547.73722575 1245.35204872 -549.02416992 1244.22094727 C-556.97202777 1237.21972418 -564.41971152 1229.731537 -571.89624023 1222.23413086 C-574.18946748 1219.9355279 -576.4880124 1217.6423397 -578.78710938 1215.34960938 C-580.26855 1213.86750813 -581.7496805 1212.3850968 -583.23046875 1210.90234375 C-583.9066777 1210.22815903 -584.58288666 1209.5539743 -585.27958679 1208.85935974 C-589.18055146 1204.93941611 -592.90383894 1200.91423243 -596.51377869 1196.72433472 C-598.42540147 1194.50644327 -600.39946761 1192.34847509 -602.375 1190.1875 C-606.22050182 1185.92119411 -609.89731266 1181.548307 -613.5078125 1177.08203125 C-615.30393609 1174.86080631 -617.11008536 1172.65099623 -618.9296875 1170.44921875 C-637.09973745 1148.3966795 -653.75033603 1125.15940176 -669 1101 C-669.49822266 1100.21608887 -669.99644531 1099.43217773 -670.50976562 1098.62451172 C-679.54714122 1084.37910927 -687.92934885 1069.81274169 -696 1055 C-696.76328613 1053.60539551 -696.76328613 1053.60539551 -697.54199219 1052.18261719 C-737.32367733 979.0965549 -762.61572958 897.30976841 -777.80859375 780.0670166 C-777.98474484 778.16474208 -778.17155591 776.26346264 -778.359375 774.36230469 C-782.53135763 731.11523477 -781.34106892 686.18183942 -777 643 C-776.85936635 641.55761803 -776.71874119 640.11523523 -776.578125 638.67285156 C-769.5222642 567.63317382 -750.96001899 496.24954827 -722 431 C-721.52046875 429.91831543 -721.0409375 428.83663086 -720.546875 427.72216797 C-715.37851395 416.13677261 -710.01663243 404.64768881 -704.21386719 393.36572266 C-703.30627972 391.59691281 -702.40417852 389.825286 -701.50488281 388.05224609 C-686.67295375 358.81328376 -669.94946408 330.76841771 -651 304 C-650.50177734 303.29456055 -650.00355469 302.58912109 -649.49023438 301.86230469 C-638.77669353 286.73926789 -627.58946136 272.00057976 -615.5078125 257.94140625 C-613.14106999 255.1654606 -610.84617969 252.34436807 -608.5625 249.5 C-604.69609833 244.7450895 -600.61471132 240.23338355 -596.42407227 235.765625 C-593.83112612 232.99981578 -591.30069868 230.19945777 -588.83032227 227.32324219 C-584.96666928 222.90010175 -580.88003898 218.73563856 -576.72265625 214.58984375 C-575.95247665 213.81870743 -575.18229706 213.04757111 -574.38877869 212.25306702 C-572.77058627 210.63419847 -571.15114788 209.01657449 -569.53051758 207.40014648 C-567.06932768 204.94431282 -564.61352191 202.48318635 -562.15820312 200.02148438 C-560.57584133 198.43978347 -558.99316933 196.85839283 -557.41015625 195.27734375 C-556.68594986 194.55111313 -555.96174347 193.82488251 -555.21559143 193.0766449 C-550.63599458 188.51774283 -545.89714381 184.21382244 -541 180 C-539.39231627 178.54554483 -537.78760285 177.08779105 -536.1875 175.625 C-531.92119411 171.77949818 -527.548307 168.10268734 -523.08203125 164.4921875 C-520.86080631 162.69606391 -518.65099623 160.88991464 -516.44921875 159.0703125 C-479.01514337 128.22674335 -438.07237583 101.30373842 -395 79 C-394.40658813 78.69233704 -393.81317627 78.38467407 -393.20178223 78.06768799 C-326.10422574 43.32925227 -253.81066827 18.69310211 -124 0 C-122.34653564 -0.1544458 -122.34653564 -0.1544458 -120.65966797 -0.31201172 C-80.87886845 -3.91396367 -39.76465553 -3.73062925 0 0 Z " fill="#14294F" transform="translate(824,46)"/>
<path d="M0 0 C1.04220703 -0.01160156 2.08441406 -0.02320313 3.15820312 -0.03515625 C25.02094996 0.04616829 43.35789326 10.19701545 58.5 25.30859375 C67.69605644 35.18203828 72.08392718 46.61065014 75.5625 59.375 C75.74280762 60.00341797 75.92311523 60.63183594 76.10888672 61.27929688 C78.58806151 72.73313777 77.57487115 87.45832226 73.5625 98.375 C73.14871094 99.58285156 72.73492188 100.79070312 72.30859375 102.03515625 C67.49410777 115.28736715 59.50091629 124.89017362 49.54632473 134.77707863 C48.55005372 135.77739941 47.55443757 136.77837275 46.55940983 137.77993023 C43.83883327 140.51458961 41.1091098 143.23995045 38.37771153 145.96379522 C35.40179203 148.93478991 32.43458519 151.91446598 29.46622473 154.89300954 C24.26762365 160.1070356 19.06347852 165.31547579 13.85561562 170.52025032 C6.11113554 178.26014899 -1.62477753 186.00856852 -9.359113 193.75860281 C-23.97748159 208.40596411 -38.60610917 223.04305063 -53.23812068 237.67678167 C-64.53763788 248.97767809 -75.83475256 260.28097085 -87.13018608 271.58594894 C-90.38288178 274.84133731 -93.6355891 278.09671407 -96.88829988 281.35208738 C-98.10128034 282.56606255 -98.10128034 282.56606255 -99.33876546 283.80456248 C-122.08022506 306.56448091 -144.82499139 329.32109047 -167.5763483 352.07111549 C-168.43388371 352.92860416 -169.29141912 353.78609283 -170.17494044 354.66956601 C-174.52119183 359.01556808 -178.86746712 363.36154624 -183.21374769 367.70751913 C-184.07691895 368.57063056 -184.94009022 369.43374199 -185.82941819 370.32300832 C-187.57495981 372.06842861 -189.32050346 373.81384687 -191.06604915 375.55926309 C-218.22704395 402.71841941 -245.37582865 429.88972966 -272.51538086 457.0703125 C-303.0131937 487.61421421 -333.52112778 518.14795777 -364.04338831 548.66743028 C-367.29832818 551.92214626 -370.55322916 555.17690113 -373.80810356 558.43168259 C-374.60953064 559.2330747 -375.41095772 560.03446682 -376.23667047 560.86014355 C-389.12829607 573.75167687 -402.01027621 586.65280684 -414.88892582 599.55730164 C-427.83326513 612.52708013 -440.78881209 625.48557962 -453.75573362 638.43278147 C-461.45621303 646.12218089 -469.14830869 653.81974718 -476.8285184 661.52939328 C-481.96372221 666.68261133 -487.10981321 671.82478531 -492.26477492 676.9582383 C-495.19877924 679.88061056 -498.12794608 682.80740098 -501.04392923 685.74776466 C-520.07186823 704.924075 -538.29130121 720.49302214 -566.6875 720.6875 C-589.58113351 720.6875 -607.04675107 713.14456552 -623.609375 697.296875 C-638.68119523 681.52403988 -643.99926896 661.58558714 -643.70703125 640.3203125 C-643.35800263 629.47119613 -640.4947131 619.96314289 -635.875 610.1875 C-635.60171875 609.59461182 -635.3284375 609.00172363 -635.046875 608.39086914 C-627.00923895 592.68653224 -611.63940317 580.28653468 -599.28657935 567.96094288 C-596.37080696 565.04937396 -593.46086928 562.13198257 -590.55015129 559.21536231 C-585.45709075 554.11357024 -580.36035122 549.01547725 -575.26112938 543.91984367 C-567.67831496 536.34235106 -560.10123354 528.75914479 -552.52522102 521.17485238 C-538.20651864 506.84093062 -523.88107494 492.51375901 -509.55352611 478.1886805 C-498.49057929 467.12756782 -487.4294328 456.0646577 -476.3695507 445.00048065 C-474.77942456 443.4097521 -473.18929781 441.81902415 -471.59917046 440.2282968 C-469.20290533 437.8311244 -466.8066409 435.4339513 -464.41038034 433.03677433 C-442.13991371 410.75788162 -419.86740528 388.48103179 -397.59063816 366.20843887 C-396.75131947 365.36927656 -395.91200078 364.53011424 -395.04724819 363.66552277 C-390.79342229 359.41250263 -386.5395764 355.15950251 -382.2857225 350.90651038 C-381.01851866 349.63956317 -381.01851866 349.63956317 -379.72571473 348.34702106 C-378.01732129 346.63897427 -376.30892691 344.93092842 -374.60053159 343.2228835 C-348.00801684 316.63572794 -321.42215969 290.04193135 -294.84155273 263.44287109 C-264.96646803 233.54707014 -235.08639403 203.65626875 -205.19893974 173.77283359 C-202.01236674 170.58665593 -198.82581064 167.40046137 -195.63926506 164.21425629 C-194.85467302 163.42975498 -194.07008097 162.64525366 -193.26171341 161.83697958 C-181.4200504 149.99648232 -169.58229855 138.15208426 -157.7465229 126.30570221 C-144.28825402 112.83538514 -130.82475594 99.37032013 -117.35426015 85.91222963 C-109.81789798 78.38249746 -102.28569606 70.84865968 -94.7594424 63.30882336 C-89.72926973 58.27040594 -84.69364605 53.23748044 -79.65359175 48.20894797 C-76.78391285 45.34552499 -73.916614 42.47982858 -71.05592699 39.60741988 C-68.44800906 36.98891476 -65.83315365 34.37754346 -63.21284348 31.7714409 C-61.83971502 30.4022823 -60.47385776 29.02584285 -59.10840693 27.64902729 C-50.87460519 19.48635358 -41.89873008 12.02394685 -31.375 7 C-30.44977539 6.52626953 -30.44977539 6.52626953 -29.50585938 6.04296875 C-19.92482263 1.3354665 -10.60346619 -0.11759852 0 0 Z " fill="#BE9456" transform="translate(1045.4375,401.625)"/>
<path d="M0 0 C2.3556923 0.77418585 4.7104208 1.5511194 7.06469727 2.32958984 C7.72176918 2.54522079 8.37884109 2.76085175 9.05582428 2.98301697 C15.81474487 5.22251002 22.37025644 7.87263584 28.9375 10.625 C29.55795197 10.88389008 30.17840393 11.14278015 30.81765747 11.40951538 C59.95708465 23.57814165 88.62250087 37.23382503 116 53 C111.29275737 58.65981484 106.25756092 63.87379829 101.03840637 69.06166077 C100.14674308 69.95206179 99.25507979 70.84246281 98.3363964 71.75984567 C95.87648032 74.21619555 93.41346935 76.66942112 90.94994104 79.12214744 C88.28740451 81.77415275 85.62783437 84.42912984 82.96795654 87.08380127 C78.3613864 91.68067967 73.7531492 96.27588126 69.14393044 100.87010384 C61.8485887 108.14200529 54.55849011 115.41915065 47.26921082 122.6971283 C44.77122139 125.19111661 42.27319818 127.68507107 39.7751646 130.17901516 C39.15092732 130.80223322 38.52669003 131.42545128 37.88353646 132.06755473 C30.78480396 139.15455489 23.68499886 146.24048007 16.5847168 153.32592773 C15.93605059 153.97324151 15.28738437 154.62055529 14.61906161 155.28748464 C4.11842992 165.76595838 -6.3860507 176.24056708 -16.89151665 186.71419377 C-27.69680703 197.48701806 -38.49626815 208.2656632 -49.29083139 219.04923624 C-55.93768457 225.68889257 -62.58920489 232.32380177 -69.24694137 238.95254546 C-73.81632859 243.50283512 -78.38014392 248.05866508 -82.93974831 252.61875737 C-85.56411938 255.24306586 -88.19079666 257.86494298 -90.82427406 260.48011589 C-122.82122565 292.26453655 -148.6129373 330.03430193 -154 376 C-154.09269952 376.71693275 -154.18539904 377.43386551 -154.28090763 378.1725235 C-154.8939766 383.61452767 -154.95599585 388.75262023 -154.56700134 394.21838379 C-153.85524979 407.24160999 -153.70200081 418.01987972 -162.30722904 428.60401154 C-166.58208893 433.22978208 -171.04763051 437.57621047 -175.6885159 441.83172798 C-178.46102299 444.40689637 -181.14277264 447.07371862 -183.83641052 449.73083496 C-188.92226747 454.72132724 -194.08150889 459.62767805 -199.27413076 464.50672102 C-205.19336035 470.07622405 -211.02202025 475.73688513 -216.84581292 481.40584469 C-228.80120534 493.03947467 -240.86192379 504.55703277 -253 516 C-255 515 -255 515 -256.08154297 512.37060547 C-256.46455566 511.21447754 -256.84756836 510.05834961 -257.2421875 508.8671875 C-257.45183136 508.2382962 -257.66147522 507.60940491 -257.87747192 506.9614563 C-258.32309719 505.6192043 -258.76503397 504.2757231 -259.20361328 502.93115234 C-259.85739312 500.92892186 -260.52325952 498.93106889 -261.19140625 496.93359375 C-274.73423679 456.12331491 -279.65286618 412.25014298 -274.30761719 369.49658203 C-273.99215972 366.93636932 -273.71773971 364.37371099 -273.4453125 361.80859375 C-267.32870155 307.86581641 -243.86991617 255.17136621 -210 213 C-209.19820312 211.98550781 -208.39640625 210.97101563 -207.5703125 209.92578125 C-196.47661747 196.08827196 -183.84532915 183.70521172 -171.30981445 171.19628906 C-169.43607918 169.32283631 -167.56254404 167.44918537 -165.68925476 165.57528687 C-161.6777162 161.56322746 -157.66437109 157.55298282 -153.64974403 153.54401398 C-147.84548314 147.74792821 -142.04403116 141.94903745 -136.24323072 136.14948866 C-126.82858196 126.73702103 -117.41170871 117.32678227 -107.9934082 107.91796875 C-98.85192755 98.7856866 -89.71151231 89.65234023 -80.57250977 80.51757812 C-80.00787056 79.95320165 -79.44323136 79.38882517 -78.86148188 78.80734637 C-76.02846806 75.97563772 -73.19547498 73.14390831 -70.3624922 70.3121686 C-46.91154213 46.87156189 -23.45697012 23.43458248 0 0 Z " fill="#BE9456" transform="translate(1005,86)"/>
<path d="M0 0 C2.13170434 2.79868917 3.95869631 5.56560407 5.64453125 8.65625 C6.14919922 9.58131348 6.65386719 10.50637695 7.17382812 11.45947266 C22.81286276 40.47743113 36.81344139 69.87176706 48.8125 100.5625 C49.23950195 101.6448291 49.66650391 102.7271582 50.10644531 103.84228516 C50.49026367 104.84437012 50.87408203 105.84645508 51.26953125 106.87890625 C51.60573486 107.7510376 51.94193848 108.62316895 52.28833008 109.52172852 C53.0679385 112.23658446 53.25471134 114.18672061 53 117 C51.76231164 118.86098218 51.76231164 118.86098218 49.98533916 120.6354866 C49.31286071 121.31915369 48.64038226 122.00282078 47.94752568 122.70720506 C47.19629408 123.44523669 46.44506248 124.18326832 45.67106628 124.94366455 C44.8825348 125.73787929 44.09400331 126.53209404 43.28157693 127.35037589 C40.62422313 130.02069468 37.94930731 132.67270103 35.27416992 135.32519531 C33.3697903 137.23143795 31.46641841 139.13863953 29.5642395 141.04707336 C24.92261124 145.69938824 20.26775786 150.33825189 15.60838594 154.97278866 C10.17769791 160.37555258 4.76032044 165.79158117 -0.65650555 171.20823714 C-10.33042362 180.88096686 -20.01619179 190.54174279 -29.70874023 200.19580078 C-39.09993987 209.54973099 -48.48312735 218.91159795 -57.85717773 228.28271484 C-58.43342244 228.85877674 -59.00966714 229.43483863 -59.6033738 230.02835694 C-60.17864549 230.60344965 -60.75391717 231.17854237 -61.34662133 231.77106214 C-62.50508617 232.92916153 -63.66355446 234.08725745 -64.82202625 235.24534988 C-65.3934343 235.81657242 -65.96484235 236.38779495 -66.55356579 236.97632726 C-75.50035182 245.91953245 -84.45457375 254.8552902 -93.40950647 263.79033686 C-96.64740213 267.0212327 -99.88419443 270.25322916 -103.1201745 273.48604354 C-108.26064745 278.62144325 -113.40433783 283.75357328 -118.55459414 288.87916288 C-120.90568047 291.21910581 -123.2547137 293.5610082 -125.60053444 295.90623665 C-142.64123484 312.93846841 -142.64123484 312.93846841 -150.76037121 319.24813461 C-153.32777242 321.25638765 -155.75024956 323.39888714 -158.1875 325.5625 C-172.41725955 337.43609337 -188.6038583 347.40196995 -205 356 C-205.60054199 356.32339355 -206.20108398 356.64678711 -206.81982422 356.97998047 C-233.58040764 371.36210058 -262.98401727 381.3738459 -292.85888672 386.55444336 C-295.03884585 386.91291824 -295.03884585 386.91291824 -297 388 C-298.645021 388.27792924 -300.2978649 388.51029675 -301.953125 388.71875 C-302.95698242 388.84596436 -303.96083984 388.97317871 -304.99511719 389.10424805 C-326.87911043 391.76506061 -326.87911043 391.76506061 -335 392 C-335.92603027 392.02723145 -336.85206055 392.05446289 -337.80615234 392.08251953 C-370.63472654 392.88543344 -402.42707778 388.93792283 -434 380 C-435.14082031 379.68313232 -435.14082031 379.68313232 -436.3046875 379.35986328 C-457.57443434 373.42556566 -457.57443434 373.42556566 -462 369 C-449.98241083 356.27732664 -437.87725741 343.64540857 -425.66448879 331.11012363 C-419.99388058 325.2856863 -414.35405538 319.43675313 -408.78149414 313.51831055 C-403.91628664 308.3512783 -398.9981267 303.24175254 -394.01293999 298.19028515 C-391.38076492 295.51942673 -388.78012642 292.83003994 -386.24163628 290.06973457 C-376.52603667 279.53957182 -367.76228639 270.92765615 -352.84798527 270.26747799 C-347.71071737 270.18690023 -342.60286927 270.48991671 -337.48005867 270.85539055 C-311.22306221 271.94646694 -282.68581796 261.35024036 -260 249 C-259.38930664 248.67386719 -258.77861328 248.34773437 -258.14941406 248.01171875 C-235.54414157 235.89442372 -217.71267726 218.01828934 -199.77562356 200.0077548 C-197.08967506 197.31306059 -194.39783608 194.62426073 -191.70675659 191.93469238 C-187.06012363 187.28910134 -182.41712753 182.63990181 -177.77667618 177.98813629 C-171.06759712 171.26271019 -164.35291396 164.54290171 -157.63690875 157.82439288 C-146.73725148 146.92037285 -135.84205554 136.01190656 -124.94970703 125.10058594 C-114.37719953 114.50968274 -103.80256543 103.92091026 -93.22509766 93.33496094 C-92.57163676 92.68097459 -91.91817586 92.02698825 -91.24491312 91.35318413 C-87.96624086 88.07190155 -84.68752711 84.79066045 -81.40879273 81.50943995 C-54.26609281 54.34605176 -27.13065046 27.17542283 0 0 Z " fill="#BE9456" transform="translate(1384,403)"/>
<path d="M0 0 C3.65281327 0.00315023 7.30480625 -0.02034625 10.95751953 -0.0456543 C25.89179243 -0.08640851 40.31997982 0.87844543 55.05517578 3.31567383 C56.34101562 3.52409912 57.62685547 3.73252441 58.95166016 3.94726562 C62.14908233 4.5077467 65.31887303 5.13474705 68.49267578 5.81567383 C69.62302246 6.05705078 70.75336914 6.29842773 71.91796875 6.54711914 C81.71816271 8.77050236 91.18769129 11.7902554 100.68017578 15.06567383 C101.74412064 15.43196899 101.74412064 15.43196899 102.82955933 15.80566406 C114.6452818 19.90577984 114.6452818 19.90577984 117.05517578 22.31567383 C105.03758661 35.03834719 92.93243319 47.67026525 80.71966457 60.20555019 C75.04905636 66.02998753 69.40923116 71.8789207 63.83666992 77.79736328 C58.97146242 82.96439553 54.05330248 88.07392129 49.06811577 93.12538868 C46.4359407 95.7962471 43.8353022 98.48563388 41.29681206 101.24593925 C31.64268925 111.70939805 22.84540991 120.38723488 7.92757511 121.05735111 C2.79497112 121.14080852 -2.3075055 120.84393487 -7.42556572 120.47574043 C-43.73916634 118.82408718 -83.20163853 136.97632797 -110.94482422 159.31567383 C-111.82057193 160.0134258 -112.69631964 160.71117777 -113.59860516 161.43007374 C-124.20932745 170.13928739 -133.78401709 179.88183654 -143.46133411 189.60005248 C-146.0620951 192.20955195 -148.668739 194.81316445 -151.27462769 197.4175415 C-155.77504053 201.91691199 -160.27181348 206.41989309 -164.76604652 210.92543602 C-171.26374106 217.43947144 -177.76703362 223.94789486 -184.27165105 230.45501653 C-194.82800874 241.01573793 -205.37990402 251.58090618 -215.92895508 262.14892578 C-226.16878152 272.40714543 -236.41073264 282.66323616 -246.65551758 292.91650391 C-247.28833223 293.54984401 -247.92114688 294.18318411 -248.57313774 294.83571633 C-251.74819213 298.01338104 -254.92328802 301.19100428 -258.09840453 304.36860693 C-284.38697883 330.67787247 -310.6682953 356.99437815 -336.94482422 383.31567383 C-338.81552732 380.84816892 -340.53375208 378.43312736 -342.03857422 375.72583008 C-342.42295654 375.03610107 -342.80733887 374.34637207 -343.20336914 373.63574219 C-343.61304932 372.89074463 -344.02272949 372.14574707 -344.44482422 371.37817383 C-344.8835083 370.58096924 -345.32219238 369.78376465 -345.77416992 368.96240234 C-347.16951648 366.41625959 -348.55735603 363.86611659 -349.94482422 361.31567383 C-350.37327637 360.53546875 -350.80172852 359.75526367 -351.24316406 358.95141602 C-363.2492949 337.01598982 -373.39818054 314.077926 -382.69482422 290.87817383 C-383.18394287 289.6594458 -383.67306152 288.44071777 -384.17700195 287.18505859 C-386.14494494 282.19734704 -387.99103512 277.24562744 -389.52008057 272.10533142 C-389.78765293 271.20757461 -390.0552253 270.30981779 -390.33090591 269.38485622 C-390.53349895 268.70202603 -390.736092 268.01919584 -390.94482422 267.31567383 C-367.06047831 243.38549308 -343.17082447 219.46062576 -319.27409376 195.54281271 C-316.44921119 192.7154289 -313.62437235 189.88800139 -310.79956055 187.06054688 C-310.23721977 186.49768148 -309.67487899 185.93481608 -309.09549759 185.35489415 C-300.00495841 176.25566591 -290.91796191 167.15290772 -281.83228286 158.04882688 C-272.50092287 148.69872608 -263.16573537 139.35245943 -253.82702619 130.00969881 C-248.07039084 124.25032706 -242.31671767 118.48802909 -236.56686703 112.72188371 C-232.61710663 108.76150476 -228.66361526 104.80487521 -224.70724883 100.85109568 C-222.42895948 98.57408008 -220.15283811 96.29497174 -217.88003731 94.01247597 C-209.22497153 85.32231969 -200.68895187 76.79372773 -190.94482422 69.31567383 C-189.69965147 68.29353068 -188.45784842 67.26724096 -187.22216797 66.23364258 C-161.26720978 44.89578221 -131.47183634 28.76098541 -99.94482422 17.31567383 C-99.24099609 17.05689453 -98.53716797 16.79811523 -97.81201172 16.53149414 C-66.25919973 5.04848277 -33.45340397 -0.06012794 0 0 Z " fill="#BE9456" transform="translate(476.94482421875,737.684326171875)"/>
<path d="M0 0 C3.05128655 1.52564328 3.13984766 3.77145971 4.20703125 6.95703125 C4.83617432 8.82838745 4.83617432 8.82838745 5.47802734 10.73754883 C5.92391399 12.0955175 6.36871487 13.4538431 6.8125 14.8125 C7.15006317 15.8383168 7.15006317 15.8383168 7.4944458 16.88485718 C16.12950733 43.18583789 22.09174211 70.22005121 22.203125 98.015625 C22.20882507 99.14788513 22.21452515 100.28014526 22.22039795 101.44671631 C22.22979974 103.83686403 22.23636262 106.22702443 22.24023438 108.6171875 C22.24986065 112.19816024 22.28089857 115.77853844 22.3125 119.359375 C22.37897847 133.82664164 21.45800136 147.74208439 19 162 C18.84103745 162.9311412 18.68207489 163.86228241 18.51829529 164.82164001 C13.74639566 192.49847981 5.36524208 219.74376557 -7 245 C-7.45858398 245.94166016 -7.91716797 246.88332031 -8.38964844 247.85351562 C-15.84827186 263.02179705 -24.20629222 277.2255639 -34 291 C-34.43296387 291.61149902 -34.86592773 292.22299805 -35.31201172 292.85302734 C-49.14434285 312.22969903 -65.97026192 329.12145889 -82.7722168 345.88574219 C-84.54743081 347.66067363 -86.32242367 349.43582629 -88.09721375 351.21118164 C-91.89609081 355.01028512 -95.69647745 358.80786833 -99.49829674 362.60402679 C-104.99486863 368.09241979 -110.48862792 373.58362125 -115.98173735 379.07547942 C-124.89724288 387.98880439 -133.81497227 396.89990089 -142.73413086 405.80957031 C-151.39058622 414.45682566 -160.045975 423.10514632 -168.69995117 431.75488281 C-169.23472042 432.28938933 -169.76948966 432.82389586 -170.32046404 433.37459955 C-173.00363715 436.05646748 -175.68678952 438.73835618 -178.36993158 441.42025518 C-200.57673957 463.61672163 -222.78720697 485.80952292 -245 508 C-246.59083631 507.52941699 -248.18114852 507.05706201 -249.77124023 506.58396912 C-250.6569017 506.32111838 -251.54256317 506.05826765 -252.45506287 505.78745174 C-255.72623403 504.77528944 -258.88711438 503.56501712 -262.0625 502.28515625 C-262.68825928 502.03343658 -263.31401855 501.78171692 -263.95874023 501.52236938 C-265.9749313 500.70827472 -267.9877496 499.88628294 -270 499.0625 C-270.69609375 498.77887604 -271.3921875 498.49525208 -272.109375 498.20303345 C-291.45470647 490.30731186 -310.43264326 481.58657804 -329 472 C-329.98484375 471.49259277 -330.9696875 470.98518555 -331.984375 470.46240234 C-335.34561627 468.72851559 -338.70462473 466.99039605 -342.0625 465.25 C-343.13443604 464.69449463 -344.20637207 464.13898926 -345.31079102 463.56665039 C-350.60378595 460.81112432 -355.84773841 458.01096705 -361 455 C-356.39162793 449.46715472 -351.4859482 444.35391487 -346.38008118 439.28001404 C-345.52516986 438.42636499 -344.67025854 437.57271594 -343.78944081 436.69319874 C-341.43170468 434.33989059 -339.0717463 431.98885244 -336.71082795 429.63873947 C-334.15871994 427.09716678 -331.60958189 424.55261851 -329.06013489 422.00837708 C-324.64509383 417.60302598 -320.22838532 413.19935252 -315.81069374 408.79665947 C-308.81779363 401.82720552 -301.83014169 394.85250261 -294.8433075 387.87696838 C-292.44865824 385.4863202 -290.05397517 383.09570589 -287.65928173 380.70510197 C-287.0608726 380.10771206 -286.46246346 379.51032215 -285.84592072 378.89482952 C-279.04146548 372.10210574 -272.23593719 365.31045751 -265.42993164 358.51928711 C-264.80818096 357.89888886 -264.18643028 357.27849062 -263.54583868 356.63929243 C-253.48169813 346.59730818 -243.41370808 336.55919028 -233.34473202 326.5220549 C-222.98692371 316.19671857 -212.63494979 305.86555659 -202.28787202 295.52946717 C-195.91740426 289.16619417 -189.54227365 282.80766755 -183.1609176 276.45531351 C-178.78074954 272.09425062 -174.40616176 267.72764042 -170.03577981 263.35677075 C-167.52077201 260.8418255 -165.00346734 258.32930778 -162.47934723 255.8235054 C-152.27633823 245.69134003 -142.46165323 235.65533611 -134 224 C-133.33370732 223.10080558 -132.66741465 222.20161116 -131.98093128 221.27516842 C-112.09153236 194.15284532 -96.19203217 156.29766248 -98.33534241 122.17567444 C-99.07003011 109.00479455 -99.36942613 98.04606768 -90.69496822 87.29772091 C-86.48800747 82.61799976 -81.95245669 78.3100441 -77.3114841 74.06687808 C-74.53711026 71.49634586 -71.85653078 68.8310479 -69.16358948 66.17579651 C-64.07959733 61.19020921 -58.92005559 56.29165441 -53.72586924 51.42125994 C-47.80460488 45.86112774 -41.97692961 40.20677533 -36.15418708 34.54383171 C-24.20182473 22.92352705 -12.1409267 11.42322634 0 0 Z " fill="#BE9456" transform="translate(764,930)"/>
</svg>
