<?xml version="1.0" encoding="UTF-8"?>
<svg version="1.1" xmlns="http://www.w3.org/2000/svg" width="937" height="235">
<path d="M0 0 C5.63544183 0.28726986 11.27440471 0.44667353 16.91436768 0.61737061 C27.95008919 0.96999066 38.97456829 1.46316624 50.00030518 2.04705811 C49.40698546 7.40096985 48.52519475 12.55918833 47.23443604 17.79241943 C47.05872574 18.52028656 46.88301544 19.24815369 46.70198059 19.99807739 C46.32363031 21.56282591 45.94326341 23.12708797 45.56104851 24.69089699 C44.95623493 27.16556202 44.35683515 29.64148502 43.75874329 32.11778259 C42.49000875 37.36623819 41.21409184 42.61293485 39.93780518 47.85955811 C38.45504666 53.95890754 36.97523504 60.05895494 35.50064278 66.16028404 C34.90968272 68.60005048 34.31448332 71.03875674 33.71903992 73.47743225 C33.35809844 74.9677991 32.99733529 76.45820916 32.63677979 77.94866943 C32.47003754 78.62662064 32.30329529 79.30457184 32.13150024 80.00306702 C31.46565516 82.77113732 31.00030518 85.18634453 31.00030518 88.04705811 C36.39776295 82.16472233 41.59430733 76.16962339 46.61749268 69.96502686 C49.20786366 66.79288403 51.84713384 63.66662516 54.50030518 60.54705811 C57.87327455 56.57813922 61.21207496 52.5868838 64.50030518 48.54705811 C68.24818316 43.9425223 72.07013962 39.40686619 75.91436768 34.88299561 C79.5523211 30.59468179 83.11551709 26.24929762 86.66436768 21.88690186 C89.8274963 18.04142609 93.04937656 14.24698355 96.2835083 10.46112061 C98.9558322 7.38394324 98.9558322 7.38394324 101.0275116 3.89845276 C104.39252341 0.74051219 108.51650969 1.5184395 112.94781494 1.5770874 C114.47984055 1.5738018 114.47984055 1.5738018 116.04281616 1.57044983 C119.42610826 1.56813423 122.80853502 1.59441887 126.19171143 1.62127686 C128.53675561 1.62619836 130.88180371 1.6294988 133.22685242 1.63124084 C138.14389568 1.63888841 143.06064864 1.65947361 147.9776001 1.69036865 C154.29195273 1.72996569 160.60611633 1.74797981 166.92057896 1.75767803 C172.92764893 1.76763597 178.93467231 1.78754074 184.94171143 1.80877686 C186.09448641 1.8121726 187.24726139 1.81556835 188.43496895 1.819067 C191.6840995 1.83060182 194.93310806 1.84911618 198.18218994 1.87005615 C199.63707573 1.87408951 199.63707573 1.87408951 201.12135315 1.87820435 C202.00325317 1.88535965 202.8851532 1.89251495 203.79377747 1.89988708 C204.94662656 1.90629731 204.94662656 1.90629731 206.12276554 1.91283703 C208.00030518 2.04705811 208.00030518 2.04705811 210.00030518 3.04705811 C208.64413643 6.7089189 206.98813686 9.8846649 204.91046143 13.18768311 C203.9888623 14.6587854 203.9888623 14.6587854 203.04864502 16.15960693 C202.39331787 17.19496582 201.73799072 18.23032471 201.06280518 19.29705811 C200.05661133 20.8916687 200.05661133 20.8916687 199.03009033 22.51849365 C197.66840696 24.67360011 196.30481192 26.82749993 194.93927002 28.98016357 C193.1912193 31.74508591 191.4616598 34.52044025 189.73858643 37.30096436 C188.78477841 38.82088427 187.83039418 40.34044281 186.87530518 41.85955811 C186.23927368 42.89741455 186.23927368 42.89741455 185.59039307 43.95623779 C181.47214357 50.43164867 176.26881006 52.45873952 169.50030518 55.47283936 C164.28034816 58.75978104 161.1778063 64.13882412 158.14483643 69.37908936 C157.6293071 70.26413147 157.6293071 70.26413147 157.10336304 71.16705322 C156.00130551 73.06158862 154.90702263 74.96048591 153.81280518 76.85955811 C153.05564452 78.16416995 152.29791054 79.46844922 151.53961182 80.7723999 C150.04459358 83.34432734 148.55213307 85.91770911 147.06182861 88.49237061 C144.37644176 93.12809204 141.65981281 97.74526755 138.93780518 102.35955811 C138.15516177 103.68893143 137.37259794 105.01835161 136.59014893 106.34783936 C135.80317627 107.68395264 135.80317627 107.68395264 135.00030518 109.04705811 C135.66038574 109.04182129 136.32046631 109.03658447 137.00054932 109.03118896 C140.0212914 109.0102686 143.04201817 108.99735031 146.06280518 108.98455811 C147.10114502 108.9761792 148.13948486 108.96780029 149.20928955 108.95916748 C154.58753586 108.94209368 159.70363729 109.09290659 165.00030518 110.04705811 C165.32901611 109.07639404 165.32901611 109.07639404 165.66436768 108.08612061 C167.49449173 103.92285593 169.91706705 100.23988262 172.37530518 96.42205811 C173.45618304 94.72814256 174.53690759 93.03412918 175.61749268 91.34002686 C176.17404541 90.47039307 176.73059814 89.60075928 177.30401611 88.70477295 C180.55723844 83.60768339 183.76981584 78.48485072 186.99005127 73.36688232 C187.45749756 72.62583252 187.92494385 71.88478271 188.40655518 71.12127686 C188.84531982 70.42292725 189.28408447 69.72457764 189.73614502 69.00506592 C190.90370553 67.19667749 192.13357421 65.45146151 193.38311768 63.69940186 C195.37835132 61.10125135 195.37835132 61.10125135 194.37530518 57.92205811 C193.10421768 55.15404462 193.10421768 55.15404462 191.81280518 53.04705811 C190.56368313 49.97229616 191.15325857 48.2789226 192.00030518 45.04705811 C193.71534157 41.73017389 195.72688181 38.62034073 197.75030518 35.48455811 C198.92773481 33.62410014 200.10480706 31.76341596 201.28155518 29.90252686 C201.89128174 28.94523682 202.5010083 27.98794678 203.12921143 27.00164795 C206.21535213 22.12841271 209.22826987 17.21020123 212.25030518 12.29705811 C213.33728962 10.53047399 214.42569719 8.76476425 215.51593018 7.00018311 C215.97258057 6.25929443 216.42923096 5.51840576 216.89971924 4.75506592 C218.00030518 3.04705811 218.00030518 3.04705811 219.00030518 2.04705811 C220.90720916 1.94389425 222.81797573 1.91183576 224.72766113 1.90661621 C225.97237183 1.90090607 227.21708252 1.89519592 228.49951172 1.88931274 C229.89202871 1.88806718 231.28454581 1.88694213 232.67706299 1.88592529 C234.13393276 1.88129908 235.59080132 1.87627468 237.04766846 1.87088013 C241.01942935 1.85772359 244.99117331 1.85130331 248.96295261 1.84686947 C251.44739828 1.84394022 253.93183931 1.8398354 256.41628265 1.8353653 C264.19735482 1.82167355 271.97841641 1.81201863 279.75949979 1.8081634 C288.72464679 1.803697 297.68964023 1.78622248 306.65474057 1.75716281 C313.59079077 1.73546664 320.52679807 1.72545469 327.4628818 1.72412229 C331.60097827 1.72307869 335.73893072 1.71726805 339.87699127 1.69930267 C343.78073059 1.68268741 347.68421986 1.68073088 351.58798218 1.68944168 C353.01125514 1.69020528 354.43454226 1.68596014 355.85778046 1.67598343 C369.91042347 1.58336012 385.24366675 3.25473865 396.19952393 13.00408936 C402.99097336 20.4504794 405.05840188 27.11252228 405.00030518 37.04705811 C406.20807114 37.04039627 407.4158371 37.03373444 408.66020203 37.02687073 C420.06238227 36.96596006 431.46452934 36.92103764 442.86683559 36.89162159 C448.72837054 36.87598994 454.58977376 36.85479719 460.45123291 36.82073975 C466.11169282 36.78805737 471.77202631 36.77018629 477.43257332 36.76242638 C479.58824719 36.75689882 481.74391442 36.7461049 483.89953423 36.72986794 C486.92733392 36.70797586 489.95461634 36.70509612 492.98248291 36.70648193 C494.30850525 36.69030319 494.30850525 36.69030319 495.66131592 36.67379761 C505.96731133 36.72457889 513.51259308 40.01058289 521.00030518 47.04705811 C527.98109318 54.51452414 530.46384803 62.78579941 530.40435791 72.8805542 C530.41465279 74.12886269 530.41465279 74.12886269 530.42515564 75.40238953 C530.44330242 78.12527025 530.43960323 80.847568 530.43389893 83.57049561 C530.43846689 85.48184392 530.44377428 87.39319059 530.44978333 89.30453491 C530.45869093 93.30048313 530.45631856 97.29623124 530.4463501 101.29217529 C530.43486983 106.38829458 530.45506962 111.48371995 530.48426723 116.57974815 C530.50270068 120.52454953 530.50232248 124.46918685 530.49662971 128.41402054 C530.49647734 130.29171344 530.50245169 132.16941805 530.51492119 134.04706955 C530.59267643 147.67444718 529.89219499 159.62973304 520.00030518 170.04705811 C511.78830389 177.68612907 503.10588647 179.50198104 492.13140869 179.45111084 C490.55882294 179.46140572 490.55882294 179.46140572 488.95446777 179.47190857 C485.5125752 179.49010706 482.07114147 179.48634895 478.62921143 179.48065186 C476.22222242 179.48521686 473.81523472 179.49052338 471.4082489 179.49653625 C466.37239271 179.50545366 461.33669522 179.50305959 456.30084229 179.49310303 C449.8639597 179.48161331 443.42762571 179.5018326 436.99081516 179.53102016 C432.0226649 179.54941075 427.05464543 179.54908398 422.08646965 179.54338264 C419.71392993 179.54322979 417.34138114 179.54924413 414.96887398 179.56167412 C411.64510293 179.57663643 408.3223369 179.56586774 404.99859619 179.54876709 C403.54488869 179.56326904 403.54488869 179.56326904 402.06181335 179.57806396 C392.10637511 179.47140207 383.20873512 176.02295805 376.00030518 169.04705811 C368.93060287 160.55059048 366.48548863 151.89028205 366.81280518 140.98455811 C366.87468018 138.03518311 366.93655518 135.08580811 367.00030518 132.04705811 C357.43030518 132.04705811 347.86030518 132.04705811 338.00030518 132.04705811 C338.33030518 134.02705811 338.66030518 136.00705811 339.00030518 138.04705811 C340.36501406 160.72810617 337.36984215 181.10245827 322.10577393 198.75799561 C321.06356689 199.89108154 321.06356689 199.89108154 320.00030518 201.04705811 C319.27456299 201.86432373 318.5488208 202.68158936 317.80108643 203.52362061 C306.35070237 215.7499811 291.44691895 223.8872099 276.00030518 230.04705811 C274.84207748 230.55582489 273.68384979 231.06459167 272.49052429 231.58877563 C264.83772295 234.09852683 256.59056488 233.43835995 248.62896729 233.38763428 C246.76559462 233.38678717 244.90222096 233.38726477 243.03884888 233.38896179 C238.00019776 233.38981992 232.9617624 233.37222375 227.92316127 233.35123992 C222.65010478 233.33244263 217.37704295 233.33072027 212.10395813 233.3271637 C202.12753235 233.3178522 192.15120559 233.29325052 182.17482334 233.26311523 C170.813297 233.22954336 159.45176584 233.2130782 148.09020221 233.19802892 C124.72684837 233.16670019 101.36358233 233.11395709 78.00030518 233.04705811 C79.33156894 228.89726492 80.7845996 225.4568297 83.12530518 221.77362061 C83.74486084 220.79095215 84.3644165 219.80828369 85.00274658 218.7958374 C85.99153809 217.24956665 85.99153809 217.24956665 87.00030518 215.67205811 C88.36267031 213.52516756 89.72464838 211.37803136 91.08624268 209.23065186 C92.08736084 207.65646484 92.08736084 207.65646484 93.10870361 206.05047607 C94.78375817 203.39088377 96.42271409 200.71505285 98.03936768 198.01971436 C98.48280518 197.28607666 98.92624268 196.55243896 99.38311768 195.79656982 C100.18613054 194.4635811 100.98100275 193.12563919 101.76593018 191.78192139 C104.03438693 188.0518196 106.01305017 185.86732669 110.00030518 184.04705811 C111.54059624 183.68695593 113.08231039 183.33289305 114.62530518 182.98455811 C122.46549512 179.89704968 125.54768464 171.71194911 129.44512939 164.74725342 C132.23223631 159.90810075 135.28634606 155.23878994 138.31280518 150.54705811 C142.65967645 143.78051789 146.90048351 136.96649426 151.00030518 130.04705811 C134.65301709 128.10308204 134.65301709 128.10308204 119.64239502 132.73504639 C115.75239003 137.28958084 113.51983943 142.67642721 111.26153564 148.17498779 C109.12414824 153.0422401 106.29189054 157.47158606 103.50030518 161.98455811 C103.00651367 162.81769531 102.51272217 163.65083252 102.00396729 164.50921631 C100.04403152 167.81446555 98.13478928 170.88192627 95.70343018 173.86737061 C93.9520117 176.10886489 93.45534688 177.19940824 93.25030518 179.98455811 C93.19358643 180.61233154 93.13686768 181.24010498 93.07843018 181.88690186 C92.95932581 184.15473301 92.95932581 184.15473301 93.18780518 186.84539795 C92.96656336 190.62321715 92.0015701 192.3003066 89.92218018 195.43377686 C88.92057861 196.9680835 88.92057861 196.9680835 87.89874268 198.53338623 C87.1897583 199.58977295 86.48077393 200.64615967 85.75030518 201.73455811 C84.38991068 203.80029333 83.0305676 205.86672127 81.67218018 207.93377686 C80.60447388 209.48770645 80.60447388 209.48770645 79.51519775 211.07302856 C77.64311867 213.90059458 76.13409114 216.76920283 74.6831665 219.83273315 C68.36589989 232.46747329 68.36589989 232.46747329 62.73856354 235.10856819 C56.32623536 236.70809363 49.80860592 236.23082153 43.26593018 235.90252686 C41.17570279 235.86703084 39.08531589 235.84001259 36.99487305 235.82106018 C31.52587438 235.7489417 26.06666387 235.56279171 20.60150146 235.35168457 C15.0118253 235.15632179 9.42054543 235.07033825 3.82843018 234.97479248 C-7.11855012 234.77179878 -18.05830498 234.4481339 -28.99969482 234.04705811 C-28.06375084 232.31713691 -27.12607006 230.58815533 -26.18768311 228.85955811 C-25.40471359 227.41516357 -25.40471359 227.41516357 -24.60592651 225.94158936 C-22.17094557 221.55359945 -19.53819847 217.29897997 -16.87469482 213.04705811 C-16.31628906 212.15422119 -15.7578833 211.26138428 -15.18255615 210.3414917 C-14.02656989 208.49380206 -12.86974967 206.64663392 -11.71209717 204.79998779 C-10.04276284 202.11629605 -8.4025705 199.41683253 -6.76922607 196.71112061 C-5.74202383 195.03134657 -4.71468587 193.3516555 -3.68719482 191.67205811 C-3.23263916 190.90635498 -2.7780835 190.14065186 -2.30975342 189.35174561 C0.63426475 184.58554181 3.8382617 181.30656714 8.14263916 177.74432373 C10.93932115 175.18912158 12.62885642 172.31165351 14.37530518 168.98455811 C14.70401611 168.3986792 15.03272705 167.81280029 15.37139893 167.20916748 C17.35344231 163.59414503 18.81200058 159.9900688 20.00030518 156.04705811 C14.27808796 162.22322992 8.77027218 168.47807243 3.48077393 175.03143311 C0.55062135 178.59376033 -2.46732361 182.07176607 -5.49969482 185.54705811 C-9.23388441 189.82908591 -12.92428759 194.13037858 -16.49969482 198.54705811 C-20.57069175 203.57242794 -24.78997441 208.45568076 -29.0380249 213.33099365 C-33.2643383 218.18476207 -37.43624875 223.08148464 -41.57342529 228.01141357 C-43.32618584 230.0953624 -45.07303119 232.12039448 -46.99969482 234.04705811 C-49.79654279 234.22230865 -52.49297562 234.27848999 -55.28875732 234.24237061 C-56.10718109 234.23954071 -56.92560486 234.23671082 -57.76882935 234.23379517 C-60.38759875 234.22258342 -63.00602846 234.19747739 -65.62469482 234.17205811 C-67.39812739 234.16202957 -69.17156531 234.1529035 -70.94500732 234.14471436 C-75.29670108 234.12264089 -79.64814032 234.08810455 -83.99969482 234.04705811 C-82.59346224 225.92080756 -80.34785794 218.14068508 -77.93719482 210.26190186 C-77.54077748 208.95269217 -77.14487271 207.64332718 -76.74945068 206.33381653 C-75.71512107 202.91178857 -74.67582415 199.49129383 -73.63482666 196.07128906 C-71.96849259 190.59653453 -70.30656871 185.12046227 -68.65084839 179.64248848 C-68.07656715 177.74684346 -67.49802402 175.85249122 -66.91937256 173.95817566 C-65.02077417 167.68820148 -63.31298132 161.46608965 -61.99969482 155.04705811 C-69.73412091 163.62312905 -74.49394641 170.30222051 -75.99969482 182.04705811 C-76.65969482 182.04705811 -77.31969482 182.04705811 -77.99969482 182.04705811 C-78.09846924 182.75394775 -78.19724365 183.4608374 -78.29901123 184.18914795 C-79.11224527 187.50612274 -80.4438244 189.85190493 -82.21063232 192.77362061 C-82.87377441 193.87979736 -83.5369165 194.98597412 -84.22015381 196.12567139 C-84.93825705 197.30784713 -85.65643889 198.48997513 -86.37469482 199.67205811 C-87.46819575 201.48929275 -88.55915961 203.30803441 -89.65000916 205.12686157 C-90.38078382 206.34491772 -91.11240301 207.56246759 -91.84486389 208.7795105 C-95.58328583 214.99637415 -99.20752767 221.27746721 -102.81170654 227.57293701 C-105.89980023 232.94716351 -105.89980023 232.94716351 -106.99969482 234.04705811 C-109.56213121 234.14931632 -112.09686853 234.18651938 -114.65985107 234.17987061 C-115.46096313 234.18118988 -116.2620752 234.18250916 -117.08746338 234.18386841 C-119.74574472 234.18580667 -122.4039239 234.17939037 -125.06219482 234.17205811 C-125.9659787 234.17117187 -126.86976257 234.17028564 -127.80093384 234.16937256 C-147.87575878 234.14637759 -167.93521778 233.65669393 -187.99969482 233.04705811 C-184.22857895 225.08791908 -179.56424898 217.77997418 -174.84613037 210.35443115 C-171.86561246 205.65334969 -168.90926666 200.96973824 -166.21453857 196.09783936 C-161.95049002 188.49114937 -158.53347515 183.46731108 -149.76141357 180.77362061 C-147.97409325 180.30340621 -146.18511164 179.8394432 -144.39422607 179.38299561 C-141.05299168 177.78916884 -141.05299168 177.78916884 -137.99969482 171.04705811 C-147.56969482 170.71705811 -157.13969482 170.38705811 -166.99969482 170.04705811 C-167.65969482 171.69705811 -168.31969482 173.34705811 -168.99969482 175.04705811 C-170.05374029 176.90454401 -171.14866976 178.7391477 -172.27313232 180.55487061 C-173.2543103 182.14464722 -173.2543103 182.14464722 -174.25531006 183.76654053 C-174.96165242 184.90178725 -175.66811667 186.03695813 -176.37469482 187.17205811 C-177.1002972 188.34417873 -177.82563659 189.5164622 -178.55072021 190.68890381 C-183.23551316 198.25405941 -187.95810526 205.79581809 -192.75311279 213.29168701 C-193.1838208 213.96763916 -193.61452881 214.64359131 -194.05828857 215.34002686 C-194.49480743 216.00034912 -194.93132629 216.66067139 -195.381073 217.34100342 C-196.65314238 219.46768258 -197.6738331 221.48188962 -198.6864624 223.72879028 C-203.65528903 234.13793832 -203.65528903 234.13793832 -209.50996399 236.40827942 C-213.80632996 236.88127246 -217.88273386 236.89867488 -222.19110107 236.73065186 C-223.57192569 236.72846725 -224.95277781 236.73305006 -226.33355713 236.7444458 C-231.41050644 236.73951905 -236.48665772 236.60439861 -241.56219482 236.48455811 C-252.92656982 236.34018311 -264.29094482 236.19580811 -275.99969482 236.04705811 C-275.50469482 191.49705811 -275.50469482 191.49705811 -274.99969482 146.04705811 C-278.95969482 151.65705811 -282.91969482 157.26705811 -286.99969482 163.04705811 C-288.87656982 165.43955811 -290.75344482 167.83205811 -292.68719482 170.29705811 C-295.98691625 174.86072306 -297.45282099 177.60237153 -297.37469482 183.23455811 C-297.38588853 192.46936191 -303.25288597 199.18931819 -308.28729248 206.51824951 C-311.13755928 210.72741168 -313.80862424 215.04761914 -316.49969482 219.35955811 C-317.4669084 220.89828536 -318.43557528 222.4361004 -319.40594482 223.97283936 C-320.01406006 224.93830688 -320.01406006 224.93830688 -320.63446045 225.92327881 C-321.08498779 226.62412598 -321.53551514 227.32497314 -321.99969482 228.04705811 C-322.52512878 229.06681229 -323.05056274 230.08656647 -323.59191895 231.13722229 C-325.99969482 234.04705811 -325.99969482 234.04705811 -329.55578613 234.76858521 C-331.00026378 234.78592618 -332.44536993 234.77013197 -333.88934326 234.72821045 C-334.67996658 234.72908661 -335.4705899 234.72996277 -336.28517151 234.73086548 C-338.89414867 234.72669068 -341.50054293 234.68004846 -344.10906982 234.63299561 C-345.91937861 234.62180297 -347.72970559 234.6132631 -349.54003906 234.60726929 C-354.30149645 234.58437606 -359.06185309 234.52544907 -363.82287598 234.45904541 C-368.68244536 234.39763321 -373.54219288 234.37025658 -378.40203857 234.34002686 C-387.93507391 234.27570593 -397.46729279 234.17332077 -406.99969482 234.04705811 C-404.89940429 229.75942113 -402.80071855 225.52744124 -400.25750732 221.48065186 C-399.75582031 220.67603516 -399.2541333 219.87141846 -398.73724365 219.04241943 C-397.63111026 217.2878457 -396.52413269 215.53380396 -395.41644287 213.7802124 C-392.28127328 208.79305119 -389.2574076 203.77760532 -386.38641357 198.63299561 C-385.78877197 197.58571289 -385.19113037 196.53843018 -384.57537842 195.45941162 C-383.42283101 193.43311774 -382.29557779 191.39217046 -381.19744873 189.33587646 C-377.27593578 182.53870586 -377.27593578 182.53870586 -373.55975342 181.1071167 C-371.83570545 180.8069318 -370.10211739 180.55674158 -368.36322021 180.36004639 C-364.68664136 179.87317787 -362.74125035 178.50188934 -359.99969482 176.04705811 C-357.87964053 173.157906 -356.12820616 170.10633065 -354.37469482 166.98455811 C-353.31681364 165.1617728 -352.25686779 163.34018441 -351.19500732 161.51971436 C-350.66165771 160.59948486 -350.12830811 159.67925537 -349.57879639 158.73114014 C-347.22790531 154.73520685 -344.74671545 150.82775213 -342.24969482 146.92205811 C-337.49081779 139.44438582 -332.82300501 131.91410867 -328.18719482 124.35955811 C-322.93069587 115.79557096 -317.64505544 107.2512161 -312.31219482 98.73455811 C-305.0206342 87.08474468 -305.0206342 87.08474468 -297.74969482 75.42205811 C-297.21255859 74.56313965 -296.67542236 73.70422119 -296.12200928 72.8192749 C-290.18725483 64.10526122 -290.18725483 64.10526122 -288.99969482 54.04705811 C-290.87738625 51.19785757 -290.87738625 51.19785757 -292.99969482 49.04705811 C-291.58991575 45.21672317 -289.80565466 41.89974821 -287.65594482 38.43377686 C-286.98563232 37.34903076 -286.31531982 36.26428467 -285.62469482 35.14666748 C-284.91643452 34.00925221 -284.2081012 32.8718824 -283.49969482 31.73455811 C-282.82938232 30.65110107 -282.15906982 29.56764404 -281.46844482 28.45135498 C-280.10775806 26.25441281 -278.72763842 24.06937267 -277.32717896 21.89756775 C-275.69808185 19.30301649 -274.33924844 16.69803618 -273.06991577 13.91114807 C-267.9703163 3.37072055 -267.9703163 3.37072055 -263.00424957 1.15791893 C-257.21270412 -0.20554703 -251.32586379 0.20970632 -245.42938232 0.48455811 C-243.53805156 0.51444383 -241.64659594 0.53719868 -239.75509644 0.55316162 C-234.80327424 0.6139325 -229.85910032 0.77074192 -224.91027832 0.94842529 C-219.84999088 1.11284521 -214.78845235 1.18532919 -209.72625732 1.26580811 C-199.81406268 1.43682327 -189.90751724 1.70944476 -179.99969482 2.04705811 C-181.51927406 13.42544271 -183.46649678 24.70817369 -185.47625732 36.00799561 C-185.80990354 37.89367173 -186.14334515 39.77938406 -186.47659302 41.66513062 C-187.34584851 46.58082622 -188.21784588 51.49603142 -189.0904541 56.41113281 C-189.98376246 61.44572607 -190.87442309 66.48078765 -191.76531982 71.51580811 C-193.50754946 81.36001307 -195.25268184 91.20370098 -196.99969482 101.04705811 C-193.52316871 96.49024327 -190.16755878 91.91817318 -187.08953857 87.07830811 C-186.40955811 86.01225342 -185.72957764 84.94619873 -185.0289917 83.84783936 C-184.33869873 82.75858154 -183.64840576 81.66932373 -182.93719482 80.54705811 C-182.24303467 79.45780029 -181.54887451 78.36854248 -180.8336792 77.24627686 C-179.48916056 75.13437388 -178.15114426 73.01831345 -176.82049561 70.89764404 C-175.69939383 69.14248391 -174.54746383 67.4060524 -173.34686279 65.70428467 C-170.49642832 61.64882773 -170.49642832 61.64882773 -170.20281982 56.78143311 C-170.54828857 55.79658936 -170.89375732 54.81174561 -171.24969482 53.79705811 C-173.28356601 47.75802521 -173.28356601 47.75802521 -171.99969482 44.04705811 C-170.985175 42.26029973 -169.90619392 40.50960484 -168.78875732 38.78533936 C-168.11973389 37.74699951 -167.45071045 36.70865967 -166.76141357 35.63885498 C-166.05629639 34.55668701 -165.3511792 33.47451904 -164.62469482 32.35955811 C-163.62502686 30.81171631 -163.62502686 30.81171631 -162.60516357 29.23260498 C-161.23106589 27.10652 -159.83699369 24.99320844 -158.42301941 22.89343262 C-156.68623578 20.24065678 -155.23624557 17.55796372 -153.85700989 14.70422363 C-148.10763387 3.4578738 -148.10763387 3.4578738 -142.91344452 1.10002708 C-136.97525156 -0.33482858 -130.94577686 0.09344299 -124.89422607 0.38690186 C-122.95949429 0.41866081 -121.02462455 0.44283531 -119.08970642 0.45979309 C-114.02737396 0.52432265 -108.97350502 0.69088844 -103.91448975 0.87976074 C-98.74028056 1.0545486 -93.56468499 1.13148998 -88.3883667 1.21697998 C-78.25511542 1.39861193 -68.12811199 1.68821619 -57.99969482 2.04705811 C-59.44011676 6.52833285 -61.15917761 10.43472505 -63.44891357 14.55487061 C-63.78461868 15.16160614 -64.12032379 15.76834167 -64.46620178 16.39346313 C-65.53517411 18.32231044 -66.61119685 20.24712314 -67.68719482 22.17205811 C-68.39010187 23.44004729 -69.0925792 24.70827478 -69.7946167 25.97674561 C-71.51510081 29.08098943 -73.25640799 32.17302243 -75.00256348 35.26287842 C-75.9762741 37.00515111 -76.92316989 38.76232441 -77.86932373 40.51971436 C-80.95508633 46.1224745 -83.07366376 49.92663681 -88.99969482 52.79705811 C-98.72828837 58.53538047 -103.47684216 69.13727795 -108.97918701 78.60516357 C-111.76675301 83.35372633 -114.66248518 88.03101444 -117.56268311 92.71136475 C-120.72201712 97.81482935 -123.8585966 102.93234949 -126.99969482 108.04705811 C-113.63469482 108.54205811 -113.63469482 108.54205811 -99.99969482 109.04705811 C-99.33969482 107.39705811 -98.67969482 105.74705811 -97.99969482 104.04705811 C-96.63959726 101.61840021 -95.25570344 99.22536868 -93.82391357 96.84002686 C-93.41687698 96.15580154 -93.00984039 95.47157623 -92.59046936 94.76661682 C-91.29272278 92.58724968 -89.9899375 90.41094159 -88.68719482 88.23455811 C-87.82295262 86.78357078 -86.95901735 85.33240059 -86.09539795 83.88104248 C-85.67565201 83.17722946 -85.25590607 82.47341644 -84.82344055 81.74827576 C-83.9958443 80.36020334 -83.16976303 78.97122645 -82.34526062 77.58131409 C-80.298544 74.14707794 -78.17192335 70.82409602 -75.89031982 67.53924561 C-73.66363891 63.42632673 -73.75993148 60.47679905 -74.06219482 55.98455811 C-74.08518052 44.48203303 -67.93543937 35.70470455 -61.26239014 26.72528076 C-59.23625963 23.77377384 -58.2075499 20.83515721 -57.08856201 17.4430542 C-47.6346373 -7.07435209 -21.88450024 -1.20905982 0 0 Z M284.17218018 59.74627686 C283.49840332 60.74481689 282.82462646 61.74335693 282.13043213 62.77215576 C281.42749023 63.85287354 280.72454834 64.93359131 280.00030518 66.04705811 C278.87092876 67.71195812 277.74153774 69.37684866 276.61094666 71.04092407 C275.08146678 73.30690317 273.57851466 75.58975506 272.07867432 77.87542725 C270.91501455 79.64420005 269.73991012 81.40504627 268.5647583 83.16619873 C267.82251342 84.29398802 267.0809494 85.42222577 266.34014893 86.55096436 C265.34036011 88.06412231 265.34036011 88.06412231 264.32037354 89.60784912 C263.88475098 90.41278809 263.44912842 91.21772705 263.00030518 92.04705811 C263.79021307 94.18613401 263.79021307 94.18613401 265.71514893 94.71502686 C273.99201557 96.64968988 281.60531483 96.52072734 289.13311768 92.25799561 C296.51424714 87.47107064 300.62412763 81.64323789 305.00030518 74.04705811 C305.45018799 73.29553467 305.9000708 72.54401123 306.36358643 71.76971436 C308.09164837 68.67583025 308.99431291 66.35865584 309.06280518 62.79705811 C307.71747084 59.3150163 306.11218604 58.04755295 303.00030518 56.04705811 C295.62458442 53.58848452 288.80504155 52.72900397 284.17218018 59.74627686 Z M411.70896912 64.50312805 C407.38883628 71.26934406 408.44443758 80.08922522 408.50421143 87.80487061 C408.50405624 89.43816187 408.50256408 91.0714535 408.49980164 92.70474243 C408.49842214 96.11572695 408.51090242 99.52628867 408.53375244 102.93719482 C408.56218121 107.29953277 408.5593816 111.6611714 408.54666233 116.02356148 C408.53969469 119.39171275 408.54750602 122.75970354 408.55991936 126.12783432 C408.56442014 127.73611714 408.56478271 129.34441725 408.56085396 130.95270157 C408.5579298 133.20212168 408.57450304 135.45059056 408.59625244 137.69989014 C408.60165543 138.97703888 408.60705841 140.25418762 408.61262512 141.57003784 C409.17857593 146.64593072 410.76072679 149.9004481 414.50030518 153.35955811 C418.11741899 155.80110993 420.83394936 156.17815436 425.09503174 156.22406006 C426.13331116 156.23689529 427.17159058 156.24973053 428.24133301 156.26295471 C429.36320007 156.27034164 430.48506714 156.27772858 431.64093018 156.28533936 C432.796474 156.2934111 433.95201782 156.30148285 435.14257812 156.30979919 C437.5904185 156.32363772 440.03827816 156.33436091 442.48614502 156.34222412 C446.22170788 156.35942641 449.95638339 156.40331515 453.69171143 156.44744873 C456.07061117 156.4575767 458.44951844 156.46609247 460.82843018 156.47283936 C462.49908539 156.49910149 462.49908539 156.49910149 464.20349121 156.52589417 C470.70000085 156.50780853 474.7404124 155.96860038 480.00030518 152.04705811 C483.82583925 146.94634601 484.12668467 142.45413485 484.16143799 136.20233154 C484.16640289 135.52209427 484.1713678 134.84185699 484.17648315 134.14100647 C484.19105724 131.89613827 484.19789955 129.65134079 484.20343018 127.40643311 C484.20918646 125.83947753 484.21494413 124.27252197 484.22070312 122.70556641 C484.23120024 119.42046787 484.23705103 116.1353937 484.24053955 112.85028076 C484.24601519 108.65624842 484.27002853 104.46254221 484.29851151 100.26861191 C484.31720703 97.03081342 484.32234719 93.79309233 484.32387543 90.55524445 C484.32688797 89.00999422 484.33486887 87.46474489 484.34806061 85.91954803 C484.55918711 74.61059208 484.55918711 74.61059208 481.00030518 64.04705811 C476.44609382 60.34676138 472.79140216 58.93371425 466.99737549 58.87005615 C465.97911682 58.85722092 464.96085815 58.84438568 463.91174316 58.8311615 C462.26175323 58.8200811 462.26175323 58.8200811 460.57843018 58.80877686 C459.4450824 58.80070511 458.31173462 58.79263336 457.14404297 58.78431702 C454.74328134 58.77047909 452.34250006 58.75975564 449.94171143 58.75189209 C446.27856946 58.73469083 442.61633265 58.69080181 438.95343018 58.64666748 C436.62010347 58.63653939 434.2867691 58.62802366 431.95343018 58.62127686 C430.86153381 58.60376877 429.76963745 58.58626068 428.64465332 58.56822205 C421.6064859 58.58819613 416.6198765 58.96574327 411.70896912 64.50312805 Z M366.00030518 104.04705811 C364.63853936 106.02780838 363.30437402 108.02785474 362.00030518 110.04705811 C363.65030518 110.04705811 365.30030518 110.04705811 367.00030518 110.04705811 C367.00030518 108.06705811 367.00030518 106.08705811 367.00030518 104.04705811 C366.67030518 104.04705811 366.34030518 104.04705811 366.00030518 104.04705811 Z M226.75030518 148.66424561 C225.4574127 150.72387283 224.2092016 152.8120333 223.00030518 154.92205811 C221.64664013 157.11898185 220.29246801 159.31559322 218.93780518 161.51190186 C218.2803833 162.61131104 217.62296143 163.71072021 216.94561768 164.84344482 C214.1194262 169.4977225 211.06660744 173.98650851 208.00030518 178.48455811 C204.73120039 182.55445358 204.73120039 182.55445358 203.00030518 187.04705811 C217.86446138 188.00734649 229.85315629 188.36049614 242.00030518 179.04705811 C243.04831299 178.25299561 244.0963208 177.45893311 245.17608643 176.64080811 C251.08466583 171.69481846 255.77388616 166.54857217 258.00030518 159.04705811 C258.25477566 155.23000083 258.05648533 153.32450505 255.60186768 150.35565186 C249.45943429 144.58843499 242.2865778 143.28797469 234.03814697 143.35418701 C230.15794635 144.23918334 229.10093528 145.49332987 226.75030518 148.66424561 Z " fill="#183461" transform="translate(406.99969482421875,-1.04705810546875)"/>
<path d="M0 0 C0.96875565 -0.00525696 1.93751129 -0.01051392 2.93562317 -0.01593018 C6.11301172 -0.02904864 9.2898922 -0.02041953 12.46728516 -0.01025391 C14.69251602 -0.01227731 16.91774624 -0.01519096 19.14297485 -0.01895142 C23.79801775 -0.02336403 28.45288746 -0.01697909 33.10791016 -0.00292969 C39.05138671 0.01414138 44.99445615 0.00432715 50.93791771 -0.01364708 C55.53122986 -0.02453062 60.12444685 -0.0210173 64.71776199 -0.0132637 C66.90804722 -0.01127328 69.09834131 -0.01367991 71.28861618 -0.02070236 C74.36060946 -0.02839004 77.43196034 -0.01660984 80.50390625 0 C81.3946434 -0.00607269 82.28538055 -0.01214539 83.20310974 -0.0184021 C93.51169261 0.08395807 102.97662125 2.546666 110.88134766 9.38818359 C118.07238733 17.12995935 120.34756681 24.33212136 120.17431641 34.69677734 C120.17007156 35.66349869 120.16582672 36.63022003 120.16145325 37.62623596 C120.14475288 40.69301009 120.10711664 43.75911039 120.06884766 46.82568359 C120.05378965 48.91356468 120.04010321 51.00145614 120.02783203 53.08935547 C119.99743827 58.18942895 119.93870017 63.28805816 119.88134766 68.38818359 C106.35134766 68.38818359 92.82134766 68.38818359 78.88134766 68.38818359 C78.63134766 48.76318359 78.63134766 48.76318359 78.58349609 42.60058594 C78.55411072 40.9750691 78.52328213 39.34957745 78.49072266 37.72412109 C78.48959473 36.89114502 78.4884668 36.05816895 78.48730469 35.19995117 C78.35586914 29.819108 77.5513584 26.59002286 73.88134766 22.38818359 C70.14969858 19.70118694 67.56490525 19.00837434 62.99291992 18.98413086 C61.25069908 18.9651046 61.25069908 18.9651046 59.47328186 18.94569397 C58.22735764 18.94862961 56.98143341 18.95156525 55.69775391 18.95458984 C53.7653611 18.94672707 53.7653611 18.94672707 51.79393005 18.93870544 C49.07126041 18.92978846 46.34888431 18.93218079 43.6262207 18.94213867 C40.14810047 18.95362399 36.67099619 18.93341834 33.19300938 18.90422153 C29.86120475 18.88139451 26.52963476 18.88832892 23.19775391 18.89208984 C21.95385391 18.88085587 20.70995392 18.86962189 19.42835999 18.85804749 C10.81210857 18.86168779 10.81210857 18.86168779 3.88134766 23.38818359 C0.74627766 27.54927488 0.45062372 31.15601361 0.49316406 36.2043457 C0.4879071 36.97572372 0.48265015 37.74710175 0.47723389 38.54185486 C0.46406634 41.08328706 0.4727611 43.62408913 0.48291016 46.16552734 C0.48088828 47.93762837 0.47797589 49.70972859 0.47421265 51.48182678 C0.46979352 55.19312473 0.4762063 58.90420581 0.49023438 62.61547852 C0.50731356 67.36460892 0.49749059 72.1132302 0.47951698 76.86234188 C0.46865734 80.52128407 0.4721357 84.18010632 0.47990036 87.8390522 C0.48189699 89.58968733 0.47946201 91.34033346 0.4724617 93.09095573 C0.46481262 95.54180458 0.47649974 97.99183853 0.49316406 100.44262695 C0.48709137 101.16125916 0.48101868 101.87989136 0.47476196 102.62030029 C0.53308739 107.26838568 1.41352382 110.45007267 3.88134766 114.38818359 C8.89188007 118.33264528 12.6387188 119.50042199 18.89013672 119.54931641 C19.88507141 119.55892395 20.8800061 119.56853149 21.90509033 119.57843018 C22.9749115 119.58268005 24.04473267 119.58692993 25.14697266 119.59130859 C26.80802032 119.5998587 26.80802032 119.5998587 28.50262451 119.60858154 C30.84614102 119.61802505 33.18967076 119.62456295 35.53320312 119.62841797 C39.10391658 119.63810914 42.67405084 119.66913355 46.24462891 119.70068359 C48.52457342 119.70721547 50.80452203 119.71246521 53.08447266 119.71630859 C54.67705902 119.7348288 54.67705902 119.7348288 56.30181885 119.75372314 C62.95976893 119.73389158 69.31568963 119.65172171 74.4549408 114.94792175 C78.20103102 110.38127711 78.61760239 106.14203216 78.58837891 100.39208984 C78.61031311 99.28214661 78.61031311 99.28214661 78.63269043 98.14978027 C78.67963449 95.41707521 78.68432948 92.68377527 78.69384766 89.95068359 C78.75572266 83.82505859 78.81759766 77.69943359 78.88134766 71.38818359 C92.41134766 71.38818359 105.94134766 71.38818359 119.88134766 71.38818359 C120.02000894 77.29412729 120.13915478 83.19430388 120.2109375 89.10058594 C120.24089269 91.10436255 120.28167242 93.10801051 120.33398438 95.11132812 C120.66335403 108.06007628 120.73357787 118.01999931 112.17749023 128.46899414 C102.12247686 138.51344136 89.18874286 139.03693033 75.85984802 139.08291626 C73.66779025 139.07396591 71.47573747 139.06371078 69.28369141 139.05224609 C66.99931074 139.055621 64.71493183 139.06047921 62.43055725 139.06674194 C57.66226973 139.07407987 52.89445313 139.06350611 48.1262207 139.04003906 C42.04147116 139.01153763 35.9578239 139.02798469 29.87311459 139.05790138 C25.16219405 139.07604372 20.45153116 139.07018477 15.74060249 139.05726242 C13.49811227 139.05394842 11.25559797 139.05794408 9.01313591 139.06966019 C-17.96425688 139.17972125 -17.96425688 139.17972125 -28.65771484 129.06005859 C-33.83796438 123.13185859 -37.39922884 116.6220856 -37.31396484 108.64990234 C-37.30751953 107.58320313 -37.30107422 106.51650391 -37.29443359 105.41748047 C-37.27767578 104.3146875 -37.26091797 103.21189453 -37.24365234 102.07568359 C-37.23462891 100.95355469 -37.22560547 99.83142578 -37.21630859 98.67529297 C-37.1927972 95.9127045 -37.15993389 93.15055427 -37.11865234 90.38818359 C-42.32930895 90.48262267 -47.5395494 90.58890215 -52.74975586 90.70556641 C-54.51759451 90.74355329 -56.28550251 90.77845547 -58.0534668 90.81005859 C-66.75505203 90.96750882 -75.16787798 91.12653364 -83.7097168 92.94726562 C-87.97621387 93.72818117 -92.23122126 93.683888 -96.55615234 93.63818359 C-97.46341064 93.63359131 -98.37066895 93.62899902 -99.30541992 93.62426758 C-115.07149139 93.41176407 -115.07149139 93.41176407 -121.11865234 90.38818359 C-123.01504716 90.28461522 -124.91510223 90.24594082 -126.81430054 90.23669434 C-128.03013982 90.2283532 -129.2459791 90.22001205 -130.49866199 90.21141815 C-131.85685513 90.20710588 -133.21504854 90.20287967 -134.57324219 90.19873047 C-136.00260251 90.1907621 -137.43196041 90.18235084 -138.86131573 90.17353058 C-141.96135498 90.15535731 -145.06138846 90.14033175 -148.16145515 90.12768555 C-153.13284868 90.1073868 -158.1041911 90.08026528 -163.07554626 90.05224609 C-170.1780882 90.01288686 -177.28063999 89.97668778 -184.38320923 89.94262695 C-201.98190466 89.85794263 -219.58050433 89.75562535 -237.17910886 89.65403175 C-239.94074952 89.63815087 -242.70239117 89.62245067 -245.46403313 89.60679626 C-273.45415453 89.44777459 -301.44257833 89.22951326 -329.43115234 88.88818359 C-330.27781086 88.87787109 -331.12446938 88.86755859 -331.99678421 88.85693359 C-333.70708244 88.83610071 -335.41738066 88.81526737 -337.12767887 88.79443359 C-341.46841258 88.74171894 -345.80915448 88.68971841 -350.14990234 88.63818359 C-351.01442457 88.62787109 -351.8789468 88.61755859 -352.76966667 88.60693359 C-369.62103535 88.40814105 -386.47283661 88.27741371 -403.32488847 88.15390968 C-406.16541581 88.13301139 -409.00594051 88.11176559 -411.84646517 88.09050608 C-424.47709103 87.99601561 -437.10771394 87.90232378 -449.73842943 87.82055569 C-455.59501483 87.78242277 -461.45156169 87.73982353 -467.30810547 87.69580078 C-469.72283842 87.67847016 -472.13758329 87.66271671 -474.55233765 87.64868164 C-486.78628016 87.57706558 -498.92193675 87.38059496 -511.11865234 86.38818359 C-511.11865234 95.95818359 -511.11865234 105.52818359 -511.11865234 115.38818359 C-502.86865234 115.38818359 -494.61865234 115.38818359 -486.11865234 115.38818359 C-486.11865234 123.63818359 -486.11865234 131.88818359 -486.11865234 140.38818359 C-499.64865234 140.38818359 -513.17865234 140.38818359 -527.11865234 140.38818359 C-527.11865234 136.42818359 -527.11865234 132.46818359 -527.11865234 128.38818359 C-546.25865234 128.38818359 -565.39865234 128.38818359 -585.11865234 128.38818359 C-585.11865234 132.67818359 -585.11865234 136.96818359 -585.11865234 141.38818359 C-598.97865234 141.38818359 -612.83865234 141.38818359 -627.11865234 141.38818359 C-627.11865234 133.13818359 -627.11865234 124.88818359 -627.11865234 116.38818359 C-620.18865234 116.38818359 -613.25865234 116.38818359 -606.11865234 116.38818359 C-606.11865234 106.15818359 -606.11865234 95.92818359 -606.11865234 85.38818359 C-609.07165283 85.40389404 -612.02465332 85.41960449 -615.06713867 85.43579102 C-624.81007825 85.48543982 -634.55302334 85.51861373 -644.29605579 85.54362011 C-650.20484404 85.55929418 -656.11350298 85.58056433 -662.0222168 85.61450195 C-667.72155216 85.64703313 -673.42076293 85.66502348 -679.12018394 85.67281532 C-681.29756317 85.67837005 -683.47493537 85.68921669 -685.65226173 85.70537376 C-688.69565336 85.7270649 -691.73852628 85.73015399 -694.78198242 85.72875977 C-696.14036224 85.74493851 -696.14036224 85.74493851 -697.52618408 85.76144409 C-698.35489517 85.7573201 -699.18360626 85.75319611 -700.03742981 85.74894714 C-701.11731029 85.75309521 -701.11731029 85.75309521 -702.21900654 85.75732708 C-704.68688172 85.27776397 -705.58275117 84.33978781 -707.11865234 82.38818359 C-707.50943791 79.66310561 -707.25482187 77.15696403 -707.11865234 74.38818359 C-703.64821723 72.65296604 -699.62142903 73.25014682 -695.80114937 73.25789833 C-694.81811498 73.2559549 -693.83508059 73.25401147 -692.82225728 73.25200915 C-689.49014511 73.24664609 -686.15807379 73.24845786 -682.82595825 73.25015259 C-680.42802537 73.24773663 -678.03009289 73.24487502 -675.63216102 73.24160326 C-670.39873103 73.23544991 -665.16530843 73.23238586 -659.93187523 73.23197746 C-652.14924201 73.23133394 -644.3666211 73.22494946 -636.58399206 73.21723066 C-624.29488064 73.20513927 -612.00576978 73.19648538 -599.71665411 73.19019252 C-580.20223312 73.18016695 -560.68782966 73.16091692 -541.17341918 73.13865013 C-533.66811783 73.13011871 -526.16281618 73.1218527 -518.65751457 73.11354637 C-517.82358242 73.11262136 -516.98965027 73.11169635 -516.13044745 73.11074331 C-496.26779358 73.08874019 -476.40513775 73.06895603 -456.54248047 73.05029297 C-455.67312206 73.04947329 -454.80376365 73.04865361 -453.90806105 73.04780909 C-433.63294331 73.02873172 -413.35782568 73.0117697 -393.08270264 72.99945068 C-392.21124223 72.99892102 -391.33978183 72.99839135 -390.44191354 72.99784563 C-383.41798463 72.99359421 -376.39405568 72.98941781 -369.37012672 72.98526083 C-340.40550357 72.96805975 -311.44090431 72.94084233 -282.47630168 72.90210045 C-278.384672 72.89663863 -274.29304216 72.89130564 -270.2014122 72.88605881 C-268.99350022 72.88450724 -268.99350022 72.88450724 -267.76118598 72.88292432 C-254.80364916 72.86660327 -241.84612908 72.86107082 -228.88858297 72.85976115 C-215.86058489 72.85825596 -202.83263223 72.84608923 -189.8046542 72.82300474 C-182.0664383 72.80963289 -174.32832159 72.8046013 -166.59009671 72.8115511 C-160.80848109 72.81582841 -155.02697928 72.80449664 -149.24539195 72.7871608 C-146.90878432 72.78258559 -144.57216017 72.78305526 -142.2355559 72.78910919 C-127.18640283 73.01128246 -127.18640283 73.01128246 -112.50121963 70.12830865 C-101.53175165 66.72073305 -88.21222586 67.24933461 -77.50488281 71.40185547 C-73.52425692 72.5613168 -69.76829691 72.73947951 -65.65771484 72.80224609 C-64.86714691 72.82161224 -64.07657898 72.84097839 -63.26205444 72.8609314 C-60.75602752 72.92034412 -58.24995369 72.96695786 -55.74365234 73.01318359 C-54.03660191 73.05139872 -52.32957004 73.09045248 -50.62255859 73.13037109 C-46.45474191 73.22601371 -42.28683504 73.31018474 -38.11865234 73.38818359 C-38.13959961 72.08260498 -38.16054688 70.77702637 -38.18212891 69.43188477 C-38.25505565 64.54348919 -38.30064225 59.65514076 -38.33837891 54.76635742 C-38.35837512 52.65885302 -38.38558128 50.55140326 -38.42041016 48.4440918 C-38.84357544 22.16428277 -38.84357544 22.16428277 -29.87646484 11.16943359 C-21.53975744 2.72157009 -11.57026956 -0.07852461 0 0 Z " fill="#E2C069" transform="translate(814.11865234375,37.61181640625)"/>
<path d="M0 0 C1.57433807 -0.0076664 1.57433807 -0.0076664 3.18048096 -0.01548767 C6.64340957 -0.02936537 10.10613871 -0.02842802 13.5690918 -0.02612305 C15.9827634 -0.03001139 18.39643433 -0.03434635 20.81010437 -0.03910828 C25.86805438 -0.04656689 30.92593459 -0.04628208 35.98388672 -0.04101562 C42.45336767 -0.03522606 48.92256186 -0.05214163 55.39199543 -0.0753603 C60.37724976 -0.09012107 65.36243544 -0.09096605 70.34770775 -0.08785057 C72.73223627 -0.08836275 75.11676875 -0.09358102 77.50127602 -0.10366249 C80.8421837 -0.11605265 84.18253811 -0.10921894 87.5234375 -0.09765625 C88.50088425 -0.10529999 89.47833099 -0.11294373 90.48539734 -0.12081909 C101.09830797 -0.03997772 108.71421899 2.99960324 116.45581055 10.2746582 C123.43659855 17.74212424 125.9193534 26.01339951 125.85986328 36.1081543 C125.87015816 37.35646278 125.87015816 37.35646278 125.88066101 38.62998962 C125.89880779 41.35287034 125.8951086 44.0751681 125.8894043 46.7980957 C125.89397226 48.70944401 125.89927965 50.62079069 125.9052887 52.53213501 C125.9141963 56.52808323 125.91182393 60.52383134 125.90185547 64.51977539 C125.89037521 69.61589468 125.91057499 74.71132005 125.93977261 79.80734825 C125.95820605 83.75214963 125.95782785 87.69678695 125.95213509 91.64162064 C125.95198271 93.51931353 125.95795706 95.39701815 125.97042656 97.27466965 C126.0481818 110.90204727 125.34770036 122.85733314 115.45581055 133.2746582 C107.24380926 140.91372917 98.56139184 142.72958114 87.58691406 142.67871094 C86.01432831 142.68900581 86.01432831 142.68900581 84.40997314 142.69950867 C80.96808057 142.71770716 77.52664684 142.71394905 74.0847168 142.70825195 C71.67772779 142.71281695 69.27074009 142.71812348 66.86375427 142.72413635 C61.82789808 142.73305375 56.79220059 142.73065968 51.75634766 142.72070312 C45.31946507 142.70921341 38.88313108 142.7294327 32.44632053 142.75862026 C27.47817027 142.77701084 22.5101508 142.77668408 17.54197502 142.77098274 C15.1694353 142.77082989 12.79688651 142.77684423 10.42437935 142.78927422 C7.1006083 142.80423652 3.77784227 142.79346783 0.45410156 142.77636719 C-0.99960594 142.79086914 -0.99960594 142.79086914 -2.48268127 142.80566406 C-12.43811952 142.69900216 -21.33575951 139.25055815 -28.54418945 132.2746582 C-35.6141718 123.77785402 -38.06178889 115.12236776 -37.73168945 104.2121582 C-37.7181543 103.34655273 -37.70461914 102.48094727 -37.69067383 101.58911133 C-37.65578275 99.48401646 -37.6019961 97.37924846 -37.54418945 95.2746582 C-42.203191 95.22474307 -46.86203248 95.1886981 -51.52124023 95.16479492 C-53.10199703 95.15481662 -54.68273576 95.14122914 -56.26342773 95.1237793 C-64.05028281 95.04004967 -71.50068204 94.98919297 -79.12036133 96.81616211 C-84.22277818 97.78134531 -89.43227508 97.56052936 -94.60668945 97.5246582 C-95.72624023 97.53239258 -96.84579102 97.54012695 -97.99926758 97.5480957 C-99.64765625 97.54422852 -99.64765625 97.54422852 -101.3293457 97.5402832 C-102.30782471 97.53802734 -103.28630371 97.53577148 -104.29443359 97.53344727 C-106.90877774 97.32525819 -108.99046944 96.94086476 -111.49856567 96.29658508 C-117.15520153 95.01603364 -122.74213027 94.82713381 -128.52392578 94.66503906 C-129.66272344 94.62758796 -130.80152109 94.59013685 -131.97482777 94.55155087 C-142.79268845 94.21873301 -153.61036461 94.09509887 -164.43276787 94.04460526 C-168.07020541 94.02762227 -171.70758333 94.00528281 -175.34498596 93.98202515 C-180.7695723 93.94791628 -186.19416419 93.91599882 -191.61877441 93.88595581 C-206.06626831 93.80555604 -220.51366133 93.70889917 -234.96105146 93.61184716 C-237.49885082 93.59482943 -240.03665109 93.57795399 -242.57445145 93.56108665 C-294.70150302 93.21320304 -346.82743023 92.72159399 -398.95344973 92.24709463 C-405.37304857 92.18870019 -411.79264925 92.13050731 -418.21224976 92.07229614 C-447.32291312 91.8082418 -476.43355973 91.54239495 -505.54418945 91.2746582 C-505.54418945 98.8646582 -505.54418945 106.4546582 -505.54418945 114.2746582 C-497.62418945 114.2746582 -489.70418945 114.2746582 -481.54418945 114.2746582 C-481.21418945 124.5046582 -480.88418945 134.7346582 -480.54418945 145.2746582 C-481.20418945 145.2746582 -481.86418945 145.2746582 -482.54418945 145.2746582 C-482.64296387 145.98154785 -482.74173828 146.6884375 -482.84350586 147.41674805 C-483.6567399 150.73372284 -484.98831903 153.07950503 -486.75512695 156.0012207 C-487.41826904 157.10739746 -488.08141113 158.21357422 -488.76464844 159.35327148 C-489.48275168 160.53544723 -490.20093351 161.71757523 -490.91918945 162.8996582 C-492.01269038 164.71689285 -493.10365424 166.5356345 -494.19450378 168.35446167 C-494.92527845 169.57251782 -495.65689764 170.79006769 -496.38935852 172.0071106 C-500.12778046 178.22397425 -503.7520223 184.5050673 -507.35620117 190.80053711 C-510.44429486 196.17476361 -510.44429486 196.17476361 -511.54418945 197.2746582 C-514.10662584 197.37691641 -516.64136316 197.41411947 -519.2043457 197.4074707 C-520.00545776 197.40878998 -520.80656982 197.41010925 -521.63195801 197.41146851 C-524.29023935 197.41340677 -526.94841852 197.40699047 -529.60668945 197.3996582 C-530.96236526 197.39832886 -530.96236526 197.39832886 -532.34542847 197.39697266 C-552.42025341 197.37397769 -572.47971241 196.88429403 -592.54418945 196.2746582 C-588.77307358 188.31551917 -584.10874361 181.00757428 -579.390625 173.58203125 C-576.41010709 168.88094978 -573.45376129 164.19733834 -570.7590332 159.32543945 C-566.49498465 151.71874947 -563.07796978 146.69491117 -554.3059082 144.0012207 C-552.51858788 143.5310063 -550.72960627 143.0670433 -548.9387207 142.6105957 C-545.35038182 140.60861871 -544.36491297 137.91610524 -542.54418945 134.2746582 C-543.73794189 134.23707397 -543.73794189 134.23707397 -544.95581055 134.19873047 C-548.61039114 134.08168835 -552.2647812 133.95945858 -555.91918945 133.8371582 C-557.17086914 133.7978418 -558.42254883 133.75852539 -559.7121582 133.71801758 C-566.69948241 133.48022906 -573.59718348 133.06499636 -580.54418945 132.2746582 C-580.54418945 136.8946582 -580.54418945 141.5146582 -580.54418945 146.2746582 C-595.72418945 146.2746582 -610.90418945 146.2746582 -626.54418945 146.2746582 C-626.54418945 136.3746582 -626.54418945 126.4746582 -626.54418945 116.2746582 C-619.94418945 116.2746582 -613.34418945 116.2746582 -606.54418945 116.2746582 C-606.54418945 107.6946582 -606.54418945 99.1146582 -606.54418945 90.2746582 C-610.37399414 90.28625977 -614.20379883 90.29786133 -618.1496582 90.30981445 C-666.1870761 90.42868286 -666.1870761 90.42868286 -685.14541626 90.06613159 C-686.6950951 90.03862178 -688.24490848 90.017821 -689.79476929 90.00393677 C-691.90875318 89.98310236 -694.0206574 89.9374565 -696.1340332 89.8840332 C-697.28766357 89.86308594 -698.44129395 89.84213867 -699.62988281 89.82055664 C-703.16132465 89.15905845 -704.33519707 88.048636 -706.54418945 85.2746582 C-707.94876682 82.46550346 -707.79314103 80.38655286 -707.54418945 77.2746582 C-706.36574495 75.11183465 -706.36574495 75.11183465 -704.54418945 73.2746582 C-702.10957682 72.76650035 -702.10957682 72.76650035 -699.14930153 72.75483513 C-698.01996834 72.74074108 -696.89063515 72.72664704 -695.72707975 72.7121259 C-694.47866351 72.71696047 -693.23024728 72.72179505 -691.94400024 72.72677612 C-690.60528495 72.71782196 -689.26658033 72.70713249 -687.92789137 72.69485748 C-684.22575439 72.66611606 -680.52394728 72.6625723 -676.82171422 72.66306061 C-672.8045068 72.65936512 -668.78743807 72.63297046 -664.77030563 72.60962296 C-656.79907369 72.56711653 -648.82792259 72.54686074 -640.85659418 72.53366199 C-634.24092828 72.52213174 -627.62534504 72.50135542 -621.00972366 72.47463608 C-620.0574023 72.47080366 -619.10508093 72.46697125 -618.12390134 72.4630227 C-616.18225025 72.45519935 -614.24059915 72.4473749 -612.29894806 72.43954937 C-532.24868282 72.12371004 -452.19637669 72.24760527 -372.14575195 72.33325195 C-371.01516568 72.33446149 -369.8845794 72.33567103 -368.71973294 72.33691722 C-340.71172653 72.36711778 -312.70374325 72.40562667 -284.6957591 72.45198108 C-264.97950064 72.48432162 -245.26325092 72.50519574 -225.54696906 72.51625335 C-213.55046319 72.5234144 -201.55404642 72.53989813 -189.55757345 72.56905411 C-181.45198488 72.58799022 -173.34643189 72.59614089 -165.24082135 72.59564914 C-160.58439757 72.59571213 -155.92811421 72.60067941 -151.27172279 72.61881638 C-147.01463314 72.63530738 -142.7577674 72.63792255 -138.50065608 72.62956761 C-136.96523346 72.62899489 -135.42979856 72.63348368 -133.89440934 72.64362897 C-125.92436099 72.69347748 -118.9785697 72.37050183 -111.54418945 69.2746582 C-106.12505086 68.01794108 -100.70535238 68.09105691 -95.16918945 68.0871582 C-94.26168945 68.07491211 -93.35418945 68.06266602 -92.41918945 68.05004883 C-85.70798238 68.03554334 -80.11410421 68.91688369 -73.80004883 71.31835938 C-70.07652608 72.41201854 -66.58662459 72.6243973 -62.73950195 72.6887207 C-61.65353226 72.71776993 -61.65353226 72.71776993 -60.54562378 72.74740601 C-58.25359547 72.80675707 -55.96151571 72.85340698 -53.66918945 72.8996582 C-52.10666864 72.93787907 -50.54416797 72.97693314 -48.98168945 73.0168457 C-45.1693548 73.11242128 -41.35692165 73.19661426 -37.54418945 73.2746582 C-37.57037354 71.97431641 -37.59655762 70.67397461 -37.62353516 69.33422852 C-37.7147899 64.45891881 -37.77171 59.58368285 -37.81884766 54.70776367 C-37.84382165 52.60704812 -37.87781312 50.50641793 -37.92138672 48.40600586 C-38.21916134 33.6714171 -38.2967161 21.31406516 -27.5012207 10.0246582 C-18.93736663 2.36676075 -11.32492482 -0.0285267 0 0 Z M-28.26293945 14.3449707 C-34.24573689 22.76194553 -36.00573246 30.78664859 -35.8371582 40.99731445 C-35.83291336 41.98340195 -35.82866852 42.96948944 -35.82429504 43.98545837 C-35.80764116 47.10298169 -35.77001425 50.2198337 -35.73168945 53.3371582 C-35.71662542 55.46410192 -35.70294004 57.59105588 -35.69067383 59.71801758 C-35.65778127 64.90381903 -35.60609205 70.08912521 -35.54418945 75.2746582 C-40.50682376 75.20530164 -45.46865362 75.11710908 -50.43066406 75.01220703 C-52.11514282 74.97915907 -53.79972696 74.9510659 -55.484375 74.92822266 C-72.48256142 74.69150717 -72.48256142 74.69150717 -80.54418945 71.2746582 C-93.36133869 68.51017503 -107.18588407 70.15522307 -119.54418945 74.2746582 C-120.91135052 74.3655959 -122.28251553 74.40248095 -123.65269667 74.40411806 C-124.91556416 74.40925479 -124.91556416 74.40925479 -126.20394412 74.41449529 C-127.13082477 74.41318677 -128.05770543 74.41187826 -129.01267338 74.41053009 C-129.99985758 74.41307271 -130.98704177 74.41561533 -132.00414065 74.418235 C-135.34424654 74.42561095 -138.68431582 74.42583136 -142.02442932 74.42614746 C-144.43035244 74.42999471 -146.83627488 74.43428168 -149.2421965 74.43897295 C-154.48971553 74.44820464 -159.73722893 74.45433518 -164.98475456 74.45778084 C-172.7877918 74.46292768 -180.5908137 74.47377744 -188.39384291 74.48586027 C-201.5190492 74.50604206 -214.64425721 74.52172865 -227.76947212 74.53501892 C-245.68857449 74.55322357 -263.6076637 74.5779312 -281.52675556 74.60439283 C-289.86883685 74.6167031 -298.21091859 74.62869416 -306.55300045 74.64060211 C-307.38816292 74.64179464 -308.22332538 74.64298716 -309.0837958 74.64421582 C-328.97090007 74.67253828 -348.85800811 74.69773466 -368.74511719 74.72241211 C-369.6155003 74.72349331 -370.48588341 74.7245745 -371.38264177 74.72568846 C-385.50854164 74.7432315 -399.63444175 74.76058514 -413.76034188 74.77791345 C-426.99810564 74.79415407 -440.23586931 74.81046311 -453.47363281 74.8269043 C-454.77874365 74.8285235 -454.77874365 74.8285235 -456.11022036 74.83017541 C-475.96420631 74.85482437 -495.81819056 74.88036402 -515.67217159 74.90871429 C-516.92287072 74.91049967 -516.92287072 74.91049967 -518.19883649 74.91232112 C-526.52148527 74.92422218 -534.84413381 74.93627981 -543.16678203 74.94857132 C-561.06869877 74.97497555 -578.97061321 74.9986214 -596.87254038 75.01674472 C-609.9192708 75.02999422 -622.96599304 75.04662931 -636.01271457 75.06683981 C-643.77300456 75.07874031 -651.53328623 75.08779265 -659.29358372 75.09288579 C-665.07380622 75.09697782 -670.85401286 75.1061987 -676.63422608 75.11747879 C-678.98341407 75.12123711 -681.33260551 75.12327688 -683.6817965 75.12349898 C-686.85507399 75.12403449 -690.02828111 75.13060111 -693.20154667 75.13878632 C-694.5953794 75.13682354 -694.5953794 75.13682354 -696.01737037 75.13482112 C-700.41844975 75.01097656 -700.41844975 75.01097656 -704.54418945 76.2746582 C-704.60606445 77.5327832 -704.66793945 78.7909082 -704.73168945 80.0871582 C-704.76649414 80.79485352 -704.80129883 81.50254883 -704.8371582 82.23168945 C-704.45504401 84.89629907 -703.62148428 85.60630437 -701.54418945 87.2746582 C-699.6101489 87.71439855 -699.6101489 87.71439855 -697.46296692 87.63542175 C-696.21990028 87.64160774 -696.21990028 87.64160774 -694.95172119 87.6479187 C-693.59334137 87.63173996 -693.59334137 87.63173996 -692.20751953 87.61523438 C-690.77308754 87.61589149 -690.77308754 87.61589149 -689.30967712 87.61656189 C-686.14415169 87.6144694 -682.97915379 87.59111637 -679.8137207 87.56762695 C-677.62082712 87.56203264 -675.4279298 87.55776177 -673.23503113 87.55476379 C-667.45962191 87.54330207 -661.68443855 87.51382331 -655.90911865 87.48065186 C-650.01732438 87.44997966 -644.12549366 87.43626455 -638.23364258 87.42114258 C-626.67037627 87.38895497 -615.10733697 87.33617605 -603.54418945 87.2746582 C-603.54418945 97.5046582 -603.54418945 107.7346582 -603.54418945 118.2746582 C-610.47418945 118.2746582 -617.40418945 118.2746582 -624.54418945 118.2746582 C-624.54418945 126.5246582 -624.54418945 134.7746582 -624.54418945 143.2746582 C-610.68418945 143.2746582 -596.82418945 143.2746582 -582.54418945 143.2746582 C-582.54418945 138.9846582 -582.54418945 134.6946582 -582.54418945 130.2746582 C-563.40418945 130.2746582 -544.26418945 130.2746582 -524.54418945 130.2746582 C-524.54418945 134.2346582 -524.54418945 138.1946582 -524.54418945 142.2746582 C-511.01418945 142.2746582 -497.48418945 142.2746582 -483.54418945 142.2746582 C-483.54418945 134.0246582 -483.54418945 125.7746582 -483.54418945 117.2746582 C-491.79418945 117.2746582 -500.04418945 117.2746582 -508.54418945 117.2746582 C-508.54418945 107.7046582 -508.54418945 98.1346582 -508.54418945 88.2746582 C-506.58763428 88.43385742 -504.6310791 88.59305664 -502.61523438 88.75708008 C-491.22997747 89.56789956 -479.81557801 89.48960184 -468.4074707 89.5559082 C-465.92699885 89.57371063 -463.44653011 89.59195042 -460.96606445 89.6105957 C-455.68650735 89.64955257 -450.40693979 89.6860361 -445.12734985 89.72021484 C-432.46629389 89.80235092 -419.80533577 89.8981454 -407.14436913 89.99290466 C-404.30073385 90.01416844 -401.45709704 90.03520529 -398.61345863 90.05604553 C-381.60040681 90.18083222 -364.58776962 90.32183186 -347.57543945 90.5246582 C-346.27264007 90.5400958 -346.27264007 90.5400958 -344.9435215 90.55584526 C-338.05980948 90.63767638 -331.17611866 90.72126623 -324.29244614 90.80635452 C-297.19935609 91.14047503 -270.1067937 91.33188548 -243.01208305 91.46264267 C-237.50658977 91.48929513 -232.00110499 91.51748222 -226.49562073 91.54592896 C-223.72674488 91.56015903 -220.95786891 91.57436339 -218.18899286 91.58855271 C-216.33617212 91.59804773 -214.48335149 91.60756209 -212.63053095 91.61709571 C-201.54531546 91.67389795 -190.46011096 91.72382743 -179.37482041 91.76343721 C-172.36391197 91.78893167 -165.35305652 91.82135535 -158.34220248 91.85892111 C-154.23143722 91.88064423 -150.12072548 91.89885952 -146.00991249 91.9084301 C-142.19547516 91.9173322 -138.38118999 91.9352949 -134.56682527 91.96030331 C-133.17809086 91.96777691 -131.78933354 91.97189275 -130.40057909 91.97233868 C-128.50731085 91.97342364 -126.61406437 91.98785386 -124.72085571 92.00291443 C-123.66598276 92.00714637 -122.61110981 92.01137831 -121.52427101 92.01573849 C-118.2669644 92.29874447 -115.61282436 93.17384533 -112.54418945 94.2746582 C-106.42736639 95.28025111 -100.42281131 95.45764901 -94.23168945 95.4621582 C-93.35834961 95.4744043 -92.48500977 95.48665039 -91.58520508 95.49926758 C-87.11137327 95.50914359 -82.98492686 95.23682056 -78.60668945 94.30200195 C-70.13285737 92.61354752 -61.4656523 92.80354712 -52.85668945 92.6496582 C-51.0760731 92.61139676 -49.29547364 92.57234056 -47.51489258 92.5324707 C-43.19146505 92.43737128 -38.86795135 92.353023 -34.54418945 92.2746582 C-34.58346558 93.28665283 -34.58346558 93.28665283 -34.62353516 94.3190918 C-34.7286188 97.4290357 -34.79286362 100.53860468 -34.85668945 103.6496582 C-34.91953125 105.24100586 -34.91953125 105.24100586 -34.98364258 106.86450195 C-35.12543332 116.10925864 -32.44116433 121.97058124 -27.35668945 129.5246582 C-18.99235035 137.70312311 -9.94881439 140.57289248 1.47753906 140.58105469 C2.9690876 140.59353996 2.9690876 140.59353996 4.49076843 140.60627747 C7.77212468 140.63033373 11.05328176 140.63914606 14.3347168 140.64575195 C16.62670448 140.65472438 18.91869158 140.66384633 21.2106781 140.67311096 C26.01644308 140.68959362 30.82213847 140.69729929 35.62792969 140.70019531 C41.75864533 140.70556611 47.88869803 140.74319623 54.01922703 140.78893948 C58.75587797 140.81882396 63.49237183 140.82592141 68.22910881 140.82692146 C70.48754843 140.8311042 72.74598936 140.84345936 75.0043354 140.86443901 C89.11931343 140.98508477 101.08063615 140.94207674 112.89331055 132.2121582 C120.68853055 124.42512969 122.97135123 116.40186521 123.04174805 105.6965332 C123.02374037 101.803905 122.93242032 97.91586524 122.83081055 94.0246582 C122.80065937 92.00777113 122.77329271 89.99084042 122.7487793 87.97387695 C122.68836371 83.07215922 122.57089965 78.1766014 122.45581055 73.2746582 C108.92581055 73.2746582 95.39581055 73.2746582 81.45581055 73.2746582 C81.32503558 85.46502731 81.32503558 85.46502731 81.24804688 97.65576172 C81.22157518 99.19673033 81.19329228 100.73766933 81.1628418 102.27856445 C81.16882385 103.45557922 81.16882385 103.45557922 81.17492676 104.65637207 C81.04930539 109.57101909 80.18596643 112.98519833 77.029953 116.83467102 C71.15942357 122.20488838 63.29498467 121.71647966 55.79956055 121.6730957 C54.14700256 121.67740097 54.14700256 121.67740097 52.46105957 121.68179321 C50.14143355 121.68382653 47.82179009 121.67834817 45.50219727 121.66577148 C41.96681098 121.64970818 38.43256784 121.665646 34.8972168 121.68481445 C32.63549554 121.68283189 30.37377499 121.67898795 28.11206055 121.6730957 C27.06288452 121.6791684 26.0137085 121.68524109 24.93273926 121.6914978 C18.74321834 121.63265085 14.06895902 120.94914894 8.45581055 118.2746582 C3.6993096 113.3961957 3.30298084 109.22861978 3.27880859 102.68554688 C3.2689518 101.52891792 3.2689518 101.52891792 3.25889587 100.34892273 C3.2391834 97.79682313 3.22750516 95.24478231 3.2175293 92.69262695 C3.21345377 91.82026209 3.20937824 90.94789722 3.20517921 90.04909706 C3.18432769 85.43214785 3.17002174 80.81522829 3.16064453 76.19824219 C3.14957915 71.43332558 3.11517529 66.66887583 3.07547283 61.90412426 C3.04931091 58.23662964 3.04095311 54.56924637 3.03736305 50.90166664 C3.03249636 49.14541786 3.02087996 47.38917409 3.00232506 45.63301659 C2.97794098 43.17228694 2.97889682 40.71276695 2.98583984 38.25195312 C2.97302979 37.53017883 2.96021973 36.80840454 2.94702148 36.0647583 C2.99897275 30.99934061 4.19070393 28.12008953 7.45581055 24.2746582 C11.09979789 21.44488103 13.77892262 20.89481358 18.34423828 20.87060547 C19.50571884 20.8579213 20.6671994 20.84523712 21.86387634 20.83216858 C23.10980057 20.83510422 24.35572479 20.83803986 25.6394043 20.84106445 C26.92766617 20.8358226 28.21592804 20.83058075 29.54322815 20.82518005 C32.26589779 20.81626307 34.98827389 20.8186554 37.7109375 20.82861328 C41.18905774 20.8400986 44.66616201 20.81989295 48.14414883 20.79069614 C51.47595346 20.76786912 54.80752344 20.77480353 58.1394043 20.77856445 C59.38330429 20.76733047 60.62720428 20.7560965 61.90879822 20.74452209 C72.87042289 20.83281642 72.87042289 20.83281642 77.45581055 25.2746582 C81.14849355 29.62770974 80.92692163 34.06234328 80.9675293 39.51293945 C80.98416626 40.29423218 81.00080322 41.0755249 81.01794434 41.88049316 C81.07551883 44.7824446 81.10794029 47.6848512 81.14331055 50.5871582 C81.29799805 60.3324707 81.29799805 60.3324707 81.45581055 70.2746582 C94.98581055 70.2746582 108.51581055 70.2746582 122.45581055 70.2746582 C122.59443915 64.22634374 122.71359787 58.1836542 122.78540039 52.13500977 C122.81536295 50.08273529 122.85614838 48.03058654 122.90844727 45.97875977 C123.40897137 27.65132806 123.40897137 27.65132806 114.50732422 12.07299805 C106.08490976 3.66542183 95.13094193 2.1311939 83.79125977 2.09765625 C82.82308823 2.09108505 81.85491669 2.08451385 80.85740662 2.07774353 C77.65843623 2.05806019 74.45951272 2.04635798 71.26049805 2.03637695 C69.61653738 2.03026366 69.61653738 2.03026366 67.93936539 2.02402687 C62.13658081 2.00318571 56.33381974 1.98887641 50.53100586 1.97949219 C44.55599841 1.96844144 38.58136475 1.93405092 32.60648918 1.89432049 C27.99603614 1.86809774 23.38567135 1.85979523 18.7751503 1.85621071 C16.57367559 1.85135819 14.37220447 1.83978258 12.17080307 1.82117271 C-3.0598064 1.70043703 -17.71489853 1.63937595 -28.26293945 14.3449707 Z M7.16447449 27.73072815 C2.84434166 34.49694416 3.89994295 43.31682531 3.9597168 51.0324707 C3.95956161 52.66576197 3.95806945 54.2990536 3.95530701 55.93234253 C3.95392751 59.34332705 3.96640779 62.75388877 3.98925781 66.16479492 C4.01768658 70.52713287 4.01488697 74.8887715 4.0021677 79.25116158 C3.99520006 82.61931285 4.00301139 85.98730364 4.01542473 89.35543442 C4.01992551 90.96371723 4.02028808 92.57201735 4.01635933 94.18030167 C4.01343517 96.42972178 4.03000841 98.67819065 4.05175781 100.92749023 C4.0571608 102.20463898 4.06256378 103.48178772 4.06813049 104.79763794 C4.6340813 109.87353082 6.21623216 113.12804819 9.95581055 116.5871582 C13.57292436 119.02871003 16.28945473 119.40575445 20.55053711 119.45166016 C21.58881653 119.46449539 22.62709595 119.47733063 23.69683838 119.49055481 C24.81870544 119.49794174 25.94057251 119.50532867 27.09643555 119.51293945 C28.25197937 119.5210112 29.40752319 119.52908295 30.5980835 119.53739929 C33.04592387 119.55123782 35.49378353 119.561961 37.94165039 119.56982422 C41.67721325 119.58702651 45.41188876 119.63091525 49.1472168 119.67504883 C51.52611654 119.68517679 53.90502381 119.69369257 56.28393555 119.70043945 C57.95459076 119.72670158 57.95459076 119.72670158 59.65899658 119.75349426 C66.15550622 119.73540863 70.19591778 119.19620048 75.45581055 115.2746582 C79.28134462 110.17394611 79.58219005 105.68173495 79.61694336 99.42993164 C79.62190826 98.74969437 79.62687317 98.06945709 79.63198853 97.36860657 C79.64656261 95.12373837 79.65340492 92.87894089 79.65893555 90.6340332 C79.66469183 89.06707763 79.6704495 87.50012207 79.6762085 85.9331665 C79.68670561 82.64806797 79.6925564 79.3629938 79.69604492 76.07788086 C79.70152056 71.88384852 79.7255339 67.6901423 79.75401688 63.49621201 C79.7727124 60.25841352 79.77785257 57.02069243 79.7793808 53.78284454 C79.78239334 52.23759431 79.79037424 50.69234499 79.80356598 49.14714813 C80.01469248 37.83819217 80.01469248 37.83819217 76.45581055 27.2746582 C71.90159919 23.57436148 68.24690753 22.16131435 62.45288086 22.09765625 C61.43462219 22.08482101 60.41636353 22.07198578 59.36724854 22.0587616 C57.71725861 22.0476812 57.71725861 22.0476812 56.03393555 22.03637695 C54.90058777 22.02830521 53.76723999 22.02023346 52.59954834 22.01191711 C50.19878671 21.99807919 47.79800543 21.98735573 45.3972168 21.97949219 C41.73407483 21.96229093 38.07183802 21.9184019 34.40893555 21.87426758 C32.07560884 21.86413949 29.74227448 21.85562375 27.40893555 21.84887695 C26.31703918 21.83136887 25.22514282 21.81386078 24.10015869 21.79582214 C17.06199127 21.81579623 12.07538187 22.19334336 7.16447449 27.73072815 Z " fill="#2D2825" transform="translate(811.544189453125,35.725341796875)"/>
<path d="M0 0 C2.02125 0.185625 4.0425 0.37125 6.125 0.5625 C6.125 4.8525 6.125 9.1425 6.125 13.5625 C20.975 13.5625 35.825 13.5625 51.125 13.5625 C50.20419383 18.16653085 49.27466113 20.38541348 46.9140625 24.2890625 C46.25092041 25.39523926 45.58777832 26.50141602 44.90454102 27.64111328 C44.18643777 28.82328902 43.46825594 30.00541703 42.75 31.1875 C41.65649907 33.00473465 40.56553522 34.8234763 39.47468567 36.64230347 C38.743911 37.86035961 38.01229182 39.07790948 37.27983093 40.29495239 C33.541409 46.51181604 29.91716715 52.7929091 26.31298828 59.08837891 C23.22489459 64.46260541 23.22489459 64.46260541 22.125 65.5625 C19.56256361 65.66475821 17.0278263 65.70196127 14.46484375 65.6953125 C13.66373169 65.69663177 12.86261963 65.69795105 12.03723145 65.6993103 C9.37895011 65.70124857 6.72077093 65.69483226 4.0625 65.6875 C3.15871613 65.68661377 2.25493225 65.68572754 1.32376099 65.68481445 C-18.75106396 65.66181949 -38.81052296 65.17213583 -58.875 64.5625 C-55.10388413 56.60336097 -50.43955415 49.29541607 -45.72143555 41.86987305 C-42.74091764 37.16879158 -39.78457184 32.48518014 -37.08984375 27.61328125 C-32.8257952 20.00659126 -29.40878033 14.98275297 -20.63671875 12.2890625 C-19.72535156 12.04929688 -18.81398438 11.80953125 -17.875 11.5625 C-14.00328955 10.42327972 -14.00328955 10.42327972 -11.53125 7.3984375 C-10.95890625 6.18027344 -10.95890625 6.18027344 -10.375 4.9375 C-7.54648219 0.2607179 -5.36642855 -0.04074295 0 0 Z " fill="#183461" transform="translate(277.875,167.4375)"/>
<path d="M0 0 C0.78564136 0.00455664 1.57128273 0.00911329 2.3807314 0.01380801 C3.288904 0.00932721 4.1970766 0.00484642 5.13276958 0.00022984 C6.13178667 0.01577215 7.13080375 0.03131446 8.16009408 0.04732776 C9.22029742 0.04799361 10.28050075 0.04865946 11.37283146 0.04934549 C14.94311891 0.05649646 18.51254746 0.092414 22.08265573 0.12807727 C24.63478309 0.139062 27.18691857 0.14828243 29.73905832 0.15586352 C35.24272361 0.17619821 40.74609835 0.2088614 46.24962312 0.25265765 C54.20677645 0.31595834 62.16392286 0.35715043 70.12124196 0.39291689 C83.030856 0.45154464 95.94029925 0.52809527 108.84974557 0.61587024 C121.39137081 0.70110601 133.93300095 0.77792984 146.47474557 0.8434093 C147.24758926 0.84744719 148.02043294 0.85148508 148.81669613 0.85564533 C152.69375797 0.87584988 156.57082066 0.89588872 160.44788378 0.91584516 C192.62099187 1.08166453 224.79386288 1.27655114 256.96668893 1.49038196 C256.96668893 1.82038196 256.96668893 2.15038196 256.96668893 2.49038196 C128.76168893 2.98538196 128.76168893 2.98538196 -2.03331107 3.49038196 C-1.92498672 11.00800005 -1.92498672 11.00800005 0.96668893 13.49038196 C4.06912859 13.70849666 7.08483717 13.80185224 10.18983346 13.80922961 C11.14597543 13.81927524 12.1021174 13.82932086 13.08723336 13.8396709 C16.25798308 13.87064275 19.42864785 13.88757686 22.59950143 13.90444446 C24.79383471 13.92314484 26.98816071 13.94271739 29.18247873 13.96312976 C34.96597402 14.01457626 40.74949266 14.05413487 46.53309518 14.09127307 C52.43159203 14.13123441 58.32999072 14.18236255 64.22840768 14.23256946 C75.80777285 14.32947695 87.38717811 14.41280258 98.96668893 14.49038196 C98.96668893 24.72038196 98.96668893 34.95038196 98.96668893 45.49038196 C92.03668893 45.49038196 85.10668893 45.49038196 77.96668893 45.49038196 C77.96668893 53.74038196 77.96668893 61.99038196 77.96668893 70.49038196 C91.82668893 70.49038196 105.68668893 70.49038196 119.96668893 70.49038196 C119.96668893 66.20038196 119.96668893 61.91038196 119.96668893 57.49038196 C139.10668893 57.49038196 158.24668893 57.49038196 177.96668893 57.49038196 C177.96668893 61.45038196 177.96668893 65.41038196 177.96668893 69.49038196 C191.49668893 69.49038196 205.02668893 69.49038196 218.96668893 69.49038196 C218.96668893 61.24038196 218.96668893 52.99038196 218.96668893 44.49038196 C210.71668893 44.49038196 202.46668893 44.49038196 193.96668893 44.49038196 C193.96668893 34.92038196 193.96668893 25.35038196 193.96668893 15.49038196 C211.76971284 15.59857847 229.57269823 15.71064821 247.37565213 15.82972121 C255.642719 15.88489147 263.90979018 15.93834593 272.17689401 15.98769641 C279.38634384 16.03073765 286.59576398 16.07706417 293.80516768 16.12726051 C297.61897563 16.15370187 301.43277831 16.17854914 305.24662095 16.19945598 C308.84415114 16.2192291 312.44162564 16.24343018 316.03910524 16.27087283 C317.97285317 16.28451582 319.90663161 16.29360275 321.84040719 16.30250049 C328.93307542 16.36152484 335.91553684 16.71231724 342.96668893 17.49038196 C342.96668893 18.15038196 342.96668893 18.81038196 342.96668893 19.49038196 C314.15272556 19.61055472 285.3408524 19.29062912 256.52845651 19.02681994 C250.46215565 18.97154887 244.3958433 18.91758388 238.32953066 18.86362433 C224.5419007 18.74094947 210.75429114 18.61613425 196.96668893 18.49038196 C196.96668893 26.08038196 196.96668893 33.67038196 196.96668893 41.49038196 C204.88668893 41.49038196 212.80668893 41.49038196 220.96668893 41.49038196 C221.29668893 51.72038196 221.62668893 61.95038196 221.96668893 72.49038196 C206.45668893 72.49038196 190.94668893 72.49038196 174.96668893 72.49038196 C174.96668893 68.20038196 174.96668893 63.91038196 174.96668893 59.49038196 C173.13493112 59.65280383 171.30317331 59.81522571 169.41590768 59.98256946 C161.86285375 60.56176313 154.35128196 60.63831611 146.77918893 60.61538196 C145.49077096 60.61924914 144.20235299 60.62311633 142.87489206 60.62710071 C135.82842403 60.61990676 128.96306317 60.33558153 121.96668893 59.49038196 C121.96668893 64.11038196 121.96668893 68.73038196 121.96668893 73.49038196 C106.78668893 73.49038196 91.60668893 73.49038196 75.96668893 73.49038196 C75.96668893 63.59038196 75.96668893 53.69038196 75.96668893 43.49038196 C82.56668893 43.49038196 89.16668893 43.49038196 95.96668893 43.49038196 C95.96668893 34.91038196 95.96668893 26.33038196 95.96668893 17.49038196 C92.13688424 17.50198352 88.30707956 17.51358508 84.36122018 17.52553821 C36.32380228 17.64440661 36.32380228 17.64440661 17.36546212 17.28185534 C15.81578328 17.25434553 14.26596991 17.23354475 12.7161091 17.21966052 C10.6021252 17.19882612 8.49022098 17.15318026 6.37684518 17.09975696 C4.64639962 17.06833606 4.64639962 17.06833606 2.88099557 17.03628039 C-0.65044626 16.3747822 -1.82431869 15.26435975 -4.03331107 12.49038196 C-5.43788844 9.68122722 -5.28226264 7.60227661 -5.03331107 4.49038196 C-2.85707984 0.68905364 -2.85707984 0.68905364 0 0 Z " fill="#2A272A" transform="translate(109.03331106901169,108.50961804389954)"/>
<path d="M0 0 C0.33 0.99 0.66 1.98 1 3 C-0.07421875 4.65625 -0.07421875 4.65625 -1.6875 6.5 C-10.64622916 18.06787138 -9.65640831 31.22818994 -9.75 45.1875 C-9.77819711 47.30536258 -9.80812969 49.42320279 -9.83984375 51.54101562 C-9.91326431 56.69397003 -9.96311093 61.84665988 -10 67 C-14.96212553 67.0747135 -19.92391641 67.1288656 -24.88647461 67.16479492 C-26.57110302 67.17978874 -28.25569303 67.20019073 -29.94018555 67.22631836 C-46.94921089 67.48334363 -46.94921089 67.48334363 -55 64 C-67.81714924 61.23551683 -81.64169461 62.88056487 -94 67 C-95.57875955 67.09131442 -97.161127 67.12553904 -98.7425251 67.12584114 C-99.72562762 67.12844873 -100.70873015 67.13105632 -101.72162366 67.13374293 C-102.80599548 67.13151236 -103.8903673 67.1292818 -105.00759888 67.12698364 C-106.15976355 67.12854505 -107.31192823 67.13010646 -108.49900699 67.13171518 C-111.71284083 67.13502864 -114.92663718 67.13382103 -118.14047012 67.13073099 C-121.62316496 67.12845776 -125.10585479 67.13192004 -128.58854866 67.13463593 C-135.4824079 67.13906634 -142.37625641 67.13800866 -149.27011607 67.13516669 C-154.97337021 67.1329473 -160.67662082 67.1329042 -166.37987518 67.13431931 C-167.199437 67.13452155 -168.01899882 67.13472378 -168.86339584 67.13493215 C-170.53321934 67.13535278 -172.20304284 67.13577744 -173.87286633 67.13620608 C-190.73062284 67.14023695 -207.58837287 67.13669424 -224.44612837 67.13056505 C-236.45399891 67.12622852 -248.46186828 67.12367983 -260.46973954 67.12257662 C-347.50996744 67.11433004 -434.54949055 67.01732335 -568.875 66.5 C-569.92187892 66.49555766 -569.92187892 66.49555766 -570.98990691 66.49102557 C-606.32666814 66.34085953 -641.66336692 66.1778464 -677 66 C-677 65.67 -677 65.34 -677 65 C-587.42321596 64.29704002 -497.85056456 63.91001551 -408.27088928 64.00102711 C-401.46497653 64.00792094 -394.65906316 64.01388907 -387.85314941 64.01970673 C-344.98868987 64.05672247 -302.12425776 64.10641192 -259.25984067 64.17732288 C-239.53460542 64.20966393 -219.80937891 64.23053804 -200.08412027 64.24159515 C-188.08006988 64.24875703 -176.07610851 64.26524368 -164.07209098 64.29439591 C-155.95994222 64.3133327 -147.84782901 64.32148267 -139.73565829 64.32099093 C-135.07519793 64.32105392 -130.41487787 64.32602145 -125.75444984 64.34415817 C-121.4935796 64.36064921 -117.23293308 64.36326432 -112.97204119 64.35490941 C-111.4352129 64.35433668 -109.89837236 64.35882562 -108.36157745 64.36897077 C-100.38805252 64.41879447 -93.4375013 64.09800325 -86 61 C-80.58086141 59.74328287 -75.16116293 59.81639871 -69.625 59.8125 C-68.7175 59.80025391 -67.81 59.78800781 -66.875 59.77539062 C-60.16379293 59.76088513 -54.56991476 60.64222548 -48.25585938 63.04370117 C-44.53233663 64.13736033 -41.04243514 64.3497391 -37.1953125 64.4140625 C-36.1093428 64.44311172 -36.1093428 64.44311172 -35.00143433 64.4727478 C-32.70940602 64.53209886 -30.41732626 64.57874878 -28.125 64.625 C-26.56247919 64.66322087 -24.99997852 64.70227494 -23.4375 64.7421875 C-19.62516535 64.83776308 -15.8127322 64.92195606 -12 65 C-12.02618408 63.6996582 -12.05236816 62.39931641 -12.0793457 61.05957031 C-12.17060045 56.18426061 -12.22752055 51.30902465 -12.2746582 46.43310547 C-12.2996322 44.33238992 -12.33362366 42.23175973 -12.37719727 40.13134766 C-12.68827819 24.7383317 -12.52515718 13.04558067 -1.35546875 1.328125 C-0.90816406 0.88984375 -0.46085938 0.4515625 0 0 Z " fill="#231F20" transform="translate(786,44)"/>
<path d="M0 0 C0.78564136 0.00455664 1.57128273 0.00911329 2.3807314 0.01380801 C3.288904 0.00932721 4.1970766 0.00484642 5.13276958 0.00022984 C6.13178667 0.01577215 7.13080375 0.03131446 8.16009408 0.04732776 C9.22029742 0.04799361 10.28050075 0.04865946 11.37283146 0.04934549 C14.94311891 0.05649646 18.51254746 0.092414 22.08265573 0.12807727 C24.63478309 0.139062 27.18691857 0.14828243 29.73905832 0.15586352 C35.24272361 0.17619821 40.74609835 0.2088614 46.24962312 0.25265765 C54.20677645 0.31595834 62.16392286 0.35715043 70.12124196 0.39291689 C83.030856 0.45154464 95.94029925 0.52809527 108.84974557 0.61587024 C121.39137081 0.70110601 133.93300095 0.77792984 146.47474557 0.8434093 C147.24758926 0.84744719 148.02043294 0.85148508 148.81669613 0.85564533 C152.69375797 0.87584988 156.57082066 0.89588872 160.44788378 0.91584516 C192.62099187 1.08166453 224.79386288 1.27655114 256.96668893 1.49038196 C256.96668893 1.82038196 256.96668893 2.15038196 256.96668893 2.49038196 C128.76168893 2.98538196 128.76168893 2.98538196 -2.03331107 3.49038196 C-1.92498672 11.00800005 -1.92498672 11.00800005 0.96668893 13.49038196 C4.06912859 13.70849666 7.08483717 13.80185224 10.18983346 13.80922961 C11.14597543 13.81927524 12.1021174 13.82932086 13.08723336 13.8396709 C16.25798308 13.87064275 19.42864785 13.88757686 22.59950143 13.90444446 C24.79383471 13.92314484 26.98816071 13.94271739 29.18247873 13.96312976 C34.96597402 14.01457626 40.74949266 14.05413487 46.53309518 14.09127307 C52.43159203 14.13123441 58.32999072 14.18236255 64.22840768 14.23256946 C75.80777285 14.32947695 87.38717811 14.41280258 98.96668893 14.49038196 C98.96668893 24.72038196 98.96668893 34.95038196 98.96668893 45.49038196 C98.63668893 45.49038196 98.30668893 45.49038196 97.96668893 45.49038196 C97.96668893 35.59038196 97.96668893 25.69038196 97.96668893 15.49038196 C95.85069284 15.52067492 93.73469674 15.55096789 91.55457956 15.58217883 C84.45806643 15.68352127 77.36152748 15.7829605 70.26497537 15.88153338 C65.97445276 15.94118544 61.68394024 16.00142229 57.39344674 16.06313586 C55.72254873 16.0870915 54.0516503 16.11101743 52.38075143 16.13491321 C51.55864679 16.14667087 50.73654214 16.15842853 49.88952523 16.17054248 C43.44447025 16.26135813 36.99929921 16.33633379 30.55398446 16.40604663 C25.81684452 16.45996457 21.08181537 16.55112847 16.34559518 16.66225696 C14.16721676 16.69913085 11.98883183 16.73562336 9.81043893 16.77163196 C8.84722726 16.80325427 7.88401559 16.83487659 6.89161569 16.86745715 C0.57582055 16.94198757 0.57582055 16.94198757 -2.58604544 14.59780383 C-5.03891653 11.02607927 -5.38164157 8.84451327 -5.03331107 4.49038196 C-2.85707984 0.68905364 -2.85707984 0.68905364 0 0 Z " fill="#463D34" transform="translate(109.03331106901169,108.50961804389954)"/>
<path d="M0 0 C46.40297208 -0.13893954 92.80255335 0.02178798 139.20410925 0.38955754 C143.91158598 0.42679593 148.619073 0.46226429 153.3265686 0.49703979 C182.22750953 0.71271633 211.11435336 0.99140454 240 2 C240 2.33 240 2.66 240 3 C220.07728765 3.02387867 200.15457837 3.04123784 180.23185444 3.05181217 C170.97121499 3.05686312 161.71058475 3.06370511 152.44995117 3.07543945 C101.62460064 3.13856656 50.81912281 2.81451041 0 2 C0 1.34 0 0.68 0 0 Z " fill="#282323" transform="translate(452,126)"/>
<path d="M0 0 C4.95 0 9.9 0 15 0 C15 0.33 15 0.66 15 1 C10.38 1 5.76 1 1 1 C1 9.91 1 18.82 1 28 C9.58 27.67 18.16 27.34 27 27 C27.33 36.9 27.66 46.8 28 57 C22.07329334 57.04588418 16.14720167 57.08571783 10.22045898 57.10986328 C8.20383619 57.11992773 6.18722801 57.13358047 4.1706543 57.15087891 C1.27388911 57.17510769 -1.62268331 57.18647859 -4.51953125 57.1953125 C-5.87435356 57.21079636 -5.87435356 57.21079636 -7.25654602 57.22659302 C-8.5175135 57.22681961 -8.5175135 57.22681961 -9.80395508 57.22705078 C-10.91315056 57.23371262 -10.91315056 57.23371262 -12.04475403 57.24050903 C-14 57 -14 57 -17 55 C-17 51.04 -17 47.08 -17 43 C-35.81 43 -54.62 43 -74 43 C-74 42.67 -74 42.34 -74 42 C-54.86 42 -35.72 42 -16 42 C-16 45.96 -16 49.92 -16 54 C-2.47 54 11.06 54 25 54 C25 45.75 25 37.5 25 29 C16.75 29 8.5 29 0 29 C0 19.43 0 9.86 0 0 Z " fill="#4D4338" transform="translate(303,124)"/>
<path d="M0 0 C0.66 0 1.32 0 2 0 C2.28875 1.11375 2.5775 2.2275 2.875 3.375 C3.69241329 7.00291092 3.69241329 7.00291092 6 9 C9.10243966 9.2181147 12.11814824 9.31147028 15.22314453 9.31884766 C16.1792865 9.32889328 17.13542847 9.3389389 18.12054443 9.34928894 C21.29129415 9.3802608 24.46195891 9.3971949 27.6328125 9.4140625 C29.82714577 9.43276289 32.02147178 9.45233544 34.21578979 9.4727478 C39.99928509 9.5241943 45.78280373 9.56375291 51.56640625 9.60089111 C57.4649031 9.64085246 63.36330178 9.6919806 69.26171875 9.7421875 C80.84108392 9.83909499 92.42048918 9.92242062 104 10 C104 20.23 104 30.46 104 41 C103.67 41 103.34 41 103 41 C103 31.1 103 21.2 103 11 C100.88400391 11.03029297 98.76800781 11.06058594 96.58789062 11.09179688 C89.4913775 11.19313931 82.39483855 11.29257854 75.29828644 11.39115143 C71.00776383 11.45080349 66.71725131 11.51104033 62.42675781 11.57275391 C60.7558598 11.59670954 59.08496137 11.62063548 57.4140625 11.64453125 C56.59195786 11.65628891 55.76985321 11.66804657 54.9228363 11.68016052 C48.47778132 11.77097618 42.03261028 11.84595184 35.58729553 11.91566467 C30.85015559 11.96958261 26.11512644 12.06074652 21.37890625 12.171875 C19.20052783 12.2087489 17.0221429 12.24524141 14.84375 12.28125 C13.3989325 12.32868347 13.3989325 12.32868347 11.92492676 12.3770752 C5.60913161 12.45160561 5.60913161 12.45160561 2.44726562 10.10742188 C-0.01425744 6.52309881 -0.09422357 4.33428433 0 0 Z " fill="#4E4436" transform="translate(104,113)"/>
<path d="M0 0 C14.85 0 29.7 0 45 0 C45 3.96 45 7.92 45 12 C58.86 12 72.72 12 87 12 C87 12.33 87 12.66 87 13 C72.48 13.33 57.96 13.66 43 14 C43 9.71 43 5.42 43 1 C41.18113281 1.16371094 39.36226563 1.32742187 37.48828125 1.49609375 C29.71613962 2.0939508 21.97765314 2.11253977 14.1875 2.0625 C12.80143394 2.05746684 11.41536607 2.0529072 10.02929688 2.04882812 C6.68615025 2.03717953 3.34309989 2.02082429 0 2 C0 1.34 0 0.68 0 0 Z " fill="#231F20" transform="translate(241,167)"/>
<path d="M0 0 C0.9075 -0.01224609 1.815 -0.02449219 2.75 -0.03710938 C10.62842882 -0.05413768 17.17967283 1.58163549 24.625 4.1875 C24.295 5.1775 23.965 6.1675 23.625 7.1875 C23.05652344 6.98253906 22.48804688 6.77757813 21.90234375 6.56640625 C5.90820296 0.98581289 -9.34046961 3.07915017 -25.375 7.1875 C-25.375 6.1975 -25.375 5.2075 -25.375 4.1875 C-24.00208132 3.70240207 -22.62653297 3.22474487 -21.25 2.75 C-20.48429688 2.48316406 -19.71859375 2.21632813 -18.9296875 1.94140625 C-12.63702924 0.08439854 -6.50728947 0.0045826 0 0 Z " fill="#2B2728" transform="translate(716.375,103.8125)"/>
<path d="M0 0 C5.15949111 -0.04960315 10.318842 -0.08581559 15.47851562 -0.10986328 C17.23212097 -0.11989313 18.9857097 -0.13352029 20.73925781 -0.15087891 C23.26631785 -0.1752603 25.7931559 -0.1865134 28.3203125 -0.1953125 C29.09867462 -0.20563507 29.87703674 -0.21595764 30.6789856 -0.22659302 C35.22085856 -0.22751979 38.69494769 0.40193542 43 2 C44.64529366 2.26841745 46.30073867 2.48188533 47.9609375 2.6328125 C48.84394531 2.71660156 49.72695313 2.80039063 50.63671875 2.88671875 C51.99216797 3.00466797 51.99216797 3.00466797 53.375 3.125 C54.76525391 3.25455078 54.76525391 3.25455078 56.18359375 3.38671875 C58.45522701 3.59748885 60.72724727 3.80173181 63 4 C59.73086795 5.74249886 57.54294072 6.27153213 53.8125 6.25 C52.93207031 6.25515625 52.05164063 6.2603125 51.14453125 6.265625 C48.5750193 6.04857306 46.46081429 5.64831476 43.984375 5.0234375 C37.86066772 3.58784312 31.70193874 3.54140457 25.4375 3.375 C24.23802734 3.33632812 23.03855469 3.29765625 21.80273438 3.2578125 C18.86863575 3.16429541 15.93453116 3.07854365 13 3 C13 2.67 13 2.34 13 2 C8.71 1.67 4.42 1.34 0 1 C0 0.67 0 0.34 0 0 Z " fill="#433B34" transform="translate(656,127)"/>
<path d="M0 0 C0 0.33 0 0.66 0 1 C-4.29 1.99 -8.58 2.98 -13 4 C-13 3.01 -13 2.02 -13 1 C-8.31506124 -1.48887372 -5.0555786 -0.85687773 0 0 Z " fill="#312D2D" transform="translate(704,107)"/>
<path d="M0 0 C-0.99 1.485 -0.99 1.485 -2 3 C-5.5 3.3125 -5.5 3.3125 -9 3 C-9.66 2.34 -10.32 1.68 -11 1 C-7.32589215 -0.17571451 -3.83070817 -0.07366746 0 0 Z " fill="#342F2E" transform="translate(739,129)"/>
<path d="M0 0 C0.99 0.33 1.98 0.66 3 1 C2.67 1.66 2.34 2.32 2 3 C1.34 3 0.68 3 0 3 C0 4.98 0 6.96 0 9 C-0.33 9 -0.66 9 -1 9 C-1.625 5.625 -1.625 5.625 -2 2 C-1.34 1.34 -0.68 0.68 0 0 Z " fill="#3F3730" transform="translate(107,109)"/>
</svg>
